<svg xmlns="http://www.w3.org/2000/svg" viewBox="0 0 1280 360" role="img" aria-labelledby="title desc">
  <title id="title">Synkord logo for dark backgrounds</title>
  <desc id="desc">Transparent source-traced Synkord horizontal logo.</desc>
  <defs>
    <linearGradient id="synkord-blue" x1="250" y1="70" x2="430" y2="285" gradientUnits="userSpaceOnUse">
      <stop offset="0" stop-color="#1267ff"/>
      <stop offset="1" stop-color="#0047e5"/>
    </linearGradient>
  </defs>
  <path fill="url(#synkord-blue)" d="M327 96H333V97H327ZM325 97H335V98H325ZM324 98H336V99H324ZM322 99H338V100H322ZM386 99H425V100H386ZM321 100H339V101H321ZM380 100H431V101H380ZM320 101H340V102H320ZM377 101H434V102H377ZM319 102H341V103H319ZM375 102H437V103H375ZM317 103H342V104H317ZM373 103H439V104H373ZM316 104H343V105H316ZM371 104H442V105H371ZM315 105H344V106H315ZM369 105H444V106H369ZM314 106H344V107H314ZM367 106H446V107H367ZM313 107H344V108H313ZM365 107H447V108H365ZM312 108H343V109H312ZM364 108H449V109H364ZM311 109H342V110H311ZM363 109H451V110H363ZM311 110H341V111H311ZM362 110H452V111H362ZM310 111H339V112H310ZM360 111H454V112H360ZM309 112H338V113H309ZM359 112H455V113H359ZM308 113H337V114H308ZM358 113H456V114H358ZM308 114H336V115H308ZM357 114H458V115H357ZM307 115H334V116H307ZM356 115H459V116H356ZM306 116H333V117H306ZM355 116H460V117H355ZM306 117H332V118H306ZM354 117H460V118H354ZM305 118H331V119H305ZM354 118H461V119H354ZM304 119H330V120H304ZM353 119H462V120H353ZM304 120H329V121H304ZM352 120H388V121H352ZM422 120H463V121H422ZM303 121H328V122H303ZM351 121H384V122H351ZM426 121H463V122H426ZM303 122H327V123H303ZM350 122H381V123H350ZM429 122H463V123H429ZM302 123H327V124H302ZM350 123H379V124H350ZM432 123H464V124H432ZM302 124H326V125H302ZM349 124H377V125H349ZM434 124H464V125H434ZM301 125H325V126H301ZM348 125H376V126H348ZM435 125H465V126H435ZM301 126H324V127H301ZM348 126H375V127H348ZM436 126H465V127H436ZM300 127H324V128H300ZM347 127H373V128H347ZM436 127H465V128H436ZM300 128H323V129H300ZM347 128H372V129H347ZM436 128H465V129H436ZM300 129H323V130H300ZM346 129H371V130H346ZM436 129H465V130H436ZM299 130H322V131H299ZM346 130H370V131H346ZM436 130H465V131H436ZM299 131H322V132H299ZM345 131H369V132H345ZM436 131H464V132H436ZM299 132H321V133H299ZM345 132H368V133H345ZM436 132H464V133H436ZM298 133H321V134H298ZM344 133H368V134H344ZM406 133H408V134H406ZM437 133H464V134H437ZM298 134H320V135H298ZM344 134H367V135H344ZM404 134H408V135H404ZM437 134H463V135H437ZM298 135H320V136H298ZM344 135H366V136H344ZM403 135H408V136H403ZM438 135H463V136H438ZM298 136H320V137H298ZM343 136H366V137H343ZM401 136H408V137H401ZM438 136H462V137H438ZM298 137H319V138H298ZM343 137H365V138H343ZM399 137H408V138H399ZM439 137H461V138H439ZM297 138H319V139H297ZM343 138H365V139H343ZM398 138H408V139H398ZM440 138H461V139H440ZM297 139H319V140H297ZM342 139H364V140H342ZM396 139H408V140H396ZM441 139H459V140H441ZM297 140H319V141H297ZM342 140H364V141H342ZM395 140H408V141H395ZM443 140H458V141H443ZM297 141H318V142H297ZM342 141H363V142H342ZM393 141H408V142H393ZM444 141H457V142H444ZM297 142H318V143H297ZM342 142H363V143H342ZM392 142H408V143H392ZM446 142H455V143H446ZM297 143H318V144H297ZM342 143H363V144H342ZM391 143H408V144H391ZM296 144H318V145H296ZM341 144H363V145H341ZM389 144H408V145H389ZM296 145H318V146H296ZM341 145H362V146H341ZM387 145H408V146H387ZM296 146H318V147H296ZM341 146H362V147H341ZM386 146H412V147H386ZM296 147H317V148H296ZM341 147H362V148H341ZM385 147H416V148H385ZM296 148H317V149H296ZM341 148H362V149H341ZM383 148H419V149H383ZM296 149H317V150H296ZM341 149H362V150H341ZM383 149H422V150H383ZM296 150H317V151H296ZM341 150H362V151H341ZM386 150H424V151H386ZM296 151H318V152H296ZM341 151H362V152H341ZM388 151H427V152H388ZM296 152H318V153H296ZM340 152H362V153H340ZM390 152H429V153H390ZM296 153H318V154H296ZM340 153H362V154H340ZM392 153H432V154H392ZM296 154H318V155H296ZM340 154H362V155H340ZM393 154H433V155H393ZM296 155H318V156H296ZM340 155H362V156H340ZM395 155H435V156H395ZM297 156H318V157H297ZM340 156H362V157H340ZM396 156H436V157H396ZM297 157H319V158H297ZM340 157H362V158H340ZM397 157H438V158H397ZM297 158H319V159H297ZM340 158H362V159H340ZM398 158H439V159H398ZM297 159H319V160H297ZM340 159H362V160H340ZM399 159H441V160H399ZM297 160H319V161H297ZM341 160H362V161H341ZM377 160H386V161H377ZM400 160H442V161H400ZM297 161H320V162H297ZM341 161H362V162H341ZM374 161H388V162H374ZM401 161H443V162H401ZM298 162H320V163H298ZM341 162H361V163H341ZM373 162H390V163H373ZM402 162H444V163H402ZM298 163H320V164H298ZM342 163H358V164H342ZM371 163H391V164H371ZM403 163H445V164H403ZM298 164H321V165H298ZM343 164H355V165H343ZM370 164H393V165H370ZM404 164H446V165H404ZM298 165H321V166H298ZM345 165H352V166H345ZM369 165H394V166H369ZM404 165H448V166H404ZM299 166H322V167H299ZM369 166H395V167H369ZM405 166H449V167H405ZM299 167H322V168H299ZM368 167H395V168H368ZM406 167H450V168H406ZM299 168H323V169H299ZM367 168H396V169H367ZM406 168H411V169H406ZM414 168H450V169H414ZM300 169H323V170H300ZM367 169H397V170H367ZM407 169H410V170H407ZM417 169H451V170H417ZM300 170H324V171H300ZM366 170H397V171H366ZM408 170H410V171H408ZM419 170H452V171H419ZM301 171H324V172H301ZM366 171H397V172H366ZM408 171H409V172H408ZM421 171H453V172H421ZM301 172H325V173H301ZM365 172H398V173H365ZM423 172H454V173H423ZM302 173H326V174H302ZM365 173H398V174H365ZM425 173H454V174H425ZM302 174H327V175H302ZM365 174H398V175H365ZM426 174H455V175H426ZM302 175H327V176H302ZM365 175H399V176H365ZM428 175H456V176H428ZM303 176H328V177H303ZM365 176H399V177H365ZM429 176H456V177H429ZM304 177H329V178H304ZM365 177H399V178H365ZM430 177H457V178H430ZM304 178H330V179H304ZM365 178H399V179H365ZM431 178H457V179H431ZM305 179H332V180H305ZM365 179H398V180H365ZM432 179H458V180H432ZM305 180H333V181H305ZM365 180H398V181H365ZM433 180H458V181H433ZM306 181H334V182H306ZM365 181H398V182H365ZM434 181H459V182H434ZM307 182H336V183H307ZM366 182H397V183H366ZM435 182H459V183H435ZM308 183H337V184H308ZM366 183H397V184H366ZM436 183H460V184H436ZM308 184H339V185H308ZM367 184H396V185H367ZM436 184H460V185H436ZM309 185H341V186H309ZM367 185H396V186H367ZM437 185H461V186H437ZM310 186H343V187H310ZM355 186H357V187H355ZM368 186H395V187H368ZM437 186H461V187H437ZM311 187H345V188H311ZM355 187H358V188H355ZM369 187H394V188H369ZM438 187H461V188H438ZM311 188H347V189H311ZM355 188H359V189H355ZM370 188H393V189H370ZM439 188H462V189H439ZM312 189H349V190H312ZM355 189H360V190H355ZM371 189H392V190H371ZM439 189H462V190H439ZM313 190H351V191H313ZM355 190H360V191H355ZM372 190H391V191H372ZM440 190H462V191H440ZM314 191H354V192H314ZM355 191H361V192H355ZM373 191H390V192H373ZM440 191H463V192H440ZM315 192H362V193H315ZM375 192H388V193H375ZM441 192H463V193H441ZM316 193H363V194H316ZM378 193H385V194H378ZM441 193H463V194H441ZM317 194H364V195H317ZM442 194H463V195H442ZM319 195H365V196H319ZM442 195H464V196H442ZM320 196H366V197H320ZM401 196H419V197H401ZM442 196H464V197H442ZM321 197H367V198H321ZM400 197H420V198H400ZM443 197H464V198H443ZM323 198H368V199H323ZM400 198H421V199H400ZM443 198H464V199H443ZM324 199H369V200H324ZM400 199H422V200H400ZM443 199H464V200H443ZM326 200H371V201H326ZM400 200H423V201H400ZM443 200H465V201H443ZM328 201H372V202H328ZM400 201H424V202H400ZM443 201H465V202H443ZM329 202H373V203H329ZM400 202H424V203H400ZM444 202H465V203H444ZM331 203H375V204H331ZM400 203H423V204H400ZM444 203H465V204H444ZM333 204H377V205H333ZM400 204H422V205H400ZM444 204H465V205H444ZM335 205H378V206H335ZM400 205H421V206H400ZM444 205H465V206H444ZM337 206H380V207H337ZM400 206H421V207H400ZM444 206H465V207H444ZM339 207H381V208H339ZM400 207H421V208H400ZM444 207H465V208H444ZM342 208H381V209H342ZM400 208H421V209H400ZM444 208H465V209H444ZM344 209H379V210H344ZM400 209H421V210H400ZM444 209H465V210H444ZM347 210H378V211H347ZM400 210H420V211H400ZM444 210H465V211H444ZM349 211H376V212H349ZM400 211H420V212H400ZM444 211H465V212H444ZM352 212H375V213H352ZM399 212H420V213H399ZM444 212H465V213H444ZM354 213H374V214H354ZM399 213H420V214H399ZM444 213H465V214H444ZM355 214H372V215H355ZM399 214H420V215H399ZM443 214H465V215H443ZM307 215H316V216H307ZM355 215H371V216H355ZM398 215H420V216H398ZM443 215H465V216H443ZM304 216H318V217H304ZM355 216H369V217H355ZM398 216H420V217H398ZM443 216H464V217H443ZM303 217H320V218H303ZM355 217H368V218H355ZM398 217H419V218H398ZM443 217H464V218H443ZM301 218H321V219H301ZM355 218H366V219H355ZM397 218H419V219H397ZM443 218H464V219H443ZM300 219H322V220H300ZM355 219H365V220H355ZM397 219H419V220H397ZM442 219H464V220H442ZM300 220H323V221H300ZM355 220H364V221H355ZM396 220H418V221H396ZM442 220H464V221H442ZM299 221H323V222H299ZM355 221H362V222H355ZM396 221H418V222H396ZM442 221H463V222H442ZM298 222H324V223H298ZM355 222H361V223H355ZM395 222H418V223H395ZM441 222H463V223H441ZM297 223H324V224H297ZM355 223H359V224H355ZM395 223H418V224H395ZM441 223H463V224H441ZM297 224H325V225H297ZM355 224H358V225H355ZM394 224H417V225H394ZM440 224H463V225H440ZM297 225H325V226H297ZM355 225H356V226H355ZM393 225H417V226H393ZM440 225H462V226H440ZM296 226H325V227H296ZM393 226H416V227H393ZM440 226H462V227H440ZM296 227H325V228H296ZM392 227H416V228H392ZM439 227H462V228H439ZM296 228H325V229H296ZM391 228H415V229H391ZM438 228H461V229H438ZM296 229H325V230H296ZM390 229H415V230H390ZM438 229H461V230H438ZM296 230H325V231H296ZM389 230H414V231H389ZM437 230H461V231H437ZM296 231H325V232H296ZM388 231H414V232H388ZM437 231H460V232H437ZM296 232H327V233H296ZM386 232H413V233H386ZM436 232H460V233H436ZM297 233H328V234H297ZM385 233H413V234H385ZM435 233H459V234H435ZM297 234H330V235H297ZM383 234H412V235H383ZM435 234H459V235H435ZM298 235H332V236H298ZM381 235H411V236H381ZM434 235H459V236H434ZM298 236H335V237H298ZM379 236H411V237H379ZM433 236H458V237H433ZM298 237H338V238H298ZM376 237H410V238H376ZM432 237H458V238H432ZM299 238H354V239H299ZM362 238H409V239H362ZM431 238H457V239H431ZM300 239H408V240H300ZM430 239H456V240H430ZM301 240H408V241H301ZM429 240H456V241H429ZM302 241H407V242H302ZM428 241H455V242H428ZM303 242H406V243H303ZM427 242H455V243H427ZM304 243H405V244H304ZM426 243H454V244H426ZM305 244H404V245H305ZM424 244H453V245H424ZM306 245H403V246H306ZM423 245H452V246H423ZM308 246H402V247H308ZM422 246H452V247H422ZM309 247H401V248H309ZM420 247H451V248H420ZM311 248H399V249H311ZM419 248H450V249H419ZM312 249H398V250H312ZM418 249H449V250H418ZM314 250H396V251H314ZM417 250H448V251H417ZM316 251H395V252H316ZM416 251H447V252H416ZM317 252H394V253H317ZM416 252H446V253H416ZM320 253H392V254H320ZM417 253H445V254H417ZM322 254H390V255H322ZM418 254H444V255H418ZM324 255H388V256H324ZM419 255H443V256H419ZM327 256H385V257H327ZM420 256H442V257H420ZM330 257H382V258H330ZM421 257H441V258H421ZM334 258H379V259H334ZM422 258H440V259H422ZM424 259H438V260H424ZM425 260H437V261H425ZM426 261H435V262H426ZM428 262H433V263H428Z"/>
  <path fill="#ffffff" d="M546 124H552V125H546ZM538 125H560V126H538ZM534 126H563V127H534ZM735 126H752V127H735ZM967 126H984V127H967ZM532 127H566V128H532ZM735 127H752V128H735ZM967 127H984V128H967ZM530 128H568V129H530ZM735 128H752V129H735ZM967 128H984V129H967ZM528 129H569V130H528ZM735 129H752V130H735ZM967 129H984V130H967ZM526 130H571V131H526ZM735 130H752V131H735ZM967 130H984V131H967ZM525 131H572V132H525ZM735 131H752V132H735ZM967 131H984V132H967ZM524 132H573V133H524ZM735 132H752V133H735ZM967 132H984V133H967ZM523 133H575V134H523ZM735 133H752V134H735ZM967 133H984V134H967ZM522 134H576V135H522ZM735 134H752V135H735ZM967 134H984V135H967ZM521 135H577V136H521ZM735 135H752V136H735ZM967 135H984V136H967ZM520 136H577V137H520ZM735 136H752V137H735ZM967 136H984V137H967ZM519 137H578V138H519ZM735 137H752V138H735ZM967 137H984V138H967ZM518 138H579V139H518ZM735 138H752V139H735ZM967 138H984V139H967ZM518 139H544V140H518ZM552 139H579V140H552ZM735 139H752V140H735ZM967 139H984V140H967ZM517 140H540V141H517ZM556 140H580V141H556ZM735 140H752V141H735ZM967 140H984V141H967ZM517 141H538V142H517ZM558 141H581V142H558ZM735 141H752V142H735ZM967 141H984V142H967ZM516 142H536V143H516ZM560 142H581V143H560ZM735 142H752V143H735ZM967 142H984V143H967ZM516 143H535V144H516ZM561 143H582V144H561ZM735 143H752V144H735ZM967 143H984V144H967ZM515 144H534V145H515ZM562 144H582V145H562ZM735 144H752V145H735ZM967 144H984V145H967ZM515 145H534V146H515ZM563 145H582V146H563ZM735 145H752V146H735ZM967 145H984V146H967ZM515 146H533V147H515ZM564 146H582V147H564ZM735 146H752V147H735ZM967 146H984V147H967ZM515 147H533V148H515ZM565 147H583V148H565ZM735 147H752V148H735ZM967 147H984V148H967ZM515 148H532V149H515ZM565 148H583V149H565ZM735 148H752V149H735ZM967 148H984V149H967ZM514 149H532V150H514ZM565 149H583V150H565ZM735 149H752V150H735ZM967 149H984V150H967ZM514 150H532V151H514ZM566 150H583V151H566ZM735 150H752V151H735ZM967 150H984V151H967ZM514 151H532V152H514ZM566 151H583V152H566ZM689 151H706V152H689ZM735 151H752V152H735ZM820 151H839V152H820ZM905 151H912V152H905ZM938 151H954V152H938ZM967 151H984V152H967ZM514 152H532V153H514ZM566 152H583V153H566ZM587 152H595V153H587ZM601 152H605V153H601ZM638 152H656V153H638ZM661 152H667V153H661ZM687 152H708V153H687ZM735 152H752V153H735ZM777 152H785V153H777ZM790 152H795V153H790ZM817 152H842V153H817ZM873 152H874V153H873ZM881 152H887V153H881ZM888 152H889V153H888ZM901 152H912V153H901ZM935 152H957V153H935ZM967 152H984V153H967ZM514 153H532V154H514ZM566 153H583V154H566ZM587 153H605V154H587ZM638 153H656V154H638ZM661 153H677V154H661ZM685 153H710V154H685ZM735 153H752V154H735ZM775 153H795V154H775ZM814 153H845V154H814ZM873 153H889V154H873ZM898 153H912V154H898ZM933 153H959V154H933ZM967 153H984V154H967ZM514 154H532V155H514ZM588 154H606V155H588ZM638 154H655V155H638ZM661 154H677V155H661ZM683 154H712V155H683ZM735 154H752V155H735ZM774 154H794V155H774ZM812 154H847V155H812ZM873 154H889V155H873ZM897 154H912V155H897ZM931 154H961V155H931ZM967 154H984V155H967ZM514 155H533V156H514ZM588 155H606V156H588ZM637 155H655V156H637ZM661 155H677V156H661ZM682 155H714V156H682ZM735 155H752V156H735ZM773 155H793V156H773ZM811 155H849V156H811ZM873 155H889V156H873ZM895 155H912V156H895ZM930 155H962V156H930ZM967 155H984V156H967ZM515 156H534V157H515ZM588 156H606V157H588ZM637 156H654V157H637ZM661 156H677V157H661ZM681 156H715V157H681ZM735 156H752V157H735ZM772 156H792V157H772ZM809 156H850V157H809ZM873 156H889V157H873ZM894 156H912V157H894ZM928 156H964V157H928ZM967 156H984V157H967ZM515 157H534V158H515ZM589 157H607V158H589ZM636 157H654V158H636ZM661 157H677V158H661ZM680 157H716V158H680ZM735 157H752V158H735ZM771 157H791V158H771ZM808 157H851V158H808ZM873 157H889V158H873ZM893 157H912V158H893ZM927 157H965V158H927ZM967 157H984V158H967ZM515 158H535V159H515ZM589 158H607V159H589ZM636 158H653V159H636ZM661 158H677V159H661ZM679 158H717V159H679ZM735 158H752V159H735ZM771 158H790V159H771ZM806 158H853V159H806ZM873 158H889V159H873ZM892 158H912V159H892ZM926 158H966V159H926ZM967 158H984V159H967ZM515 159H537V160H515ZM590 159H608V160H590ZM636 159H653V160H636ZM661 159H677V160H661ZM678 159H718V160H678ZM735 159H752V160H735ZM770 159H789V160H770ZM805 159H854V160H805ZM873 159H889V160H873ZM891 159H912V160H891ZM925 159H966V160H925ZM967 159H984V160H967ZM516 160H539V161H516ZM590 160H608V161H590ZM635 160H652V161H635ZM661 160H677V161H661ZM678 160H719V161H678ZM735 160H752V161H735ZM769 160H788V161H769ZM804 160H855V161H804ZM873 160H889V161H873ZM891 160H912V161H891ZM924 160H984V161H924ZM516 161H541V162H516ZM591 161H608V162H591ZM635 161H652V162H635ZM661 161H719V162H661ZM735 161H752V162H735ZM768 161H787V162H768ZM803 161H856V162H803ZM873 161H889V162H873ZM890 161H912V162H890ZM923 161H984V162H923ZM516 162H544V163H516ZM591 162H609V163H591ZM635 162H652V163H635ZM661 162H720V163H661ZM735 162H752V163H735ZM767 162H787V163H767ZM802 162H857V163H802ZM873 162H889V163H873ZM890 162H912V163H890ZM922 162H984V163H922ZM517 163H548V164H517ZM591 163H609V164H591ZM634 163H651V164H634ZM661 163H720V164H661ZM735 163H752V164H735ZM766 163H786V164H766ZM802 163H857V164H802ZM873 163H912V164H873ZM922 163H984V164H922ZM517 164H551V165H517ZM592 164H610V165H592ZM634 164H651V165H634ZM661 164H721V165H661ZM735 164H752V165H735ZM765 164H785V165H765ZM801 164H858V165H801ZM873 164H912V165H873ZM921 164H984V165H921ZM518 165H556V166H518ZM592 165H610V166H592ZM634 165H650V166H634ZM661 165H690V166H661ZM696 165H721V166H696ZM735 165H752V166H735ZM764 165H784V166H764ZM800 165H824V166H800ZM834 165H859V166H834ZM873 165H912V166H873ZM920 165H946V166H920ZM954 165H984V166H954ZM519 166H560V167H519ZM593 166H610V167H593ZM633 166H650V167H633ZM661 166H686V167H661ZM699 166H722V167H699ZM735 166H752V167H735ZM763 166H783V167H763ZM800 166H821V167H800ZM837 166H859V167H837ZM873 166H912V167H873ZM920 166H943V167H920ZM957 166H984V167H957ZM520 167H564V168H520ZM593 167H611V168H593ZM633 167H650V168H633ZM661 167H684V168H661ZM701 167H722V168H701ZM735 167H752V168H735ZM762 167H782V168H762ZM799 167H820V168H799ZM839 167H860V168H839ZM873 167H912V168H873ZM919 167H941V168H919ZM959 167H984V168H959ZM521 168H567V169H521ZM593 168H611V169H593ZM633 168H649V169H633ZM661 168H683V169H661ZM702 168H722V169H702ZM735 168H752V169H735ZM761 168H781V169H761ZM798 168H818V169H798ZM840 168H860V169H840ZM873 168H903V169H873ZM918 168H939V169H918ZM960 168H984V169H960ZM522 169H569V170H522ZM594 169H611V170H594ZM632 169H649V170H632ZM661 169H682V170H661ZM703 169H723V170H703ZM735 169H752V170H735ZM760 169H780V170H760ZM798 169H817V170H798ZM841 169H861V170H841ZM873 169H900V170H873ZM918 169H938V170H918ZM961 169H984V170H961ZM523 170H572V171H523ZM594 170H612V171H594ZM632 170H648V171H632ZM661 170H681V171H661ZM704 170H723V171H704ZM735 170H752V171H735ZM759 170H779V171H759ZM797 170H816V171H797ZM842 170H861V171H842ZM873 170H898V171H873ZM918 170H937V171H918ZM962 170H984V171H962ZM524 171H574V172H524ZM595 171H612V172H595ZM631 171H648V172H631ZM661 171H680V172H661ZM704 171H723V172H704ZM735 171H752V172H735ZM758 171H778V172H758ZM797 171H815V172H797ZM843 171H862V172H843ZM873 171H896V172H873ZM917 171H936V172H917ZM963 171H984V172H963ZM526 172H575V173H526ZM595 172H612V173H595ZM631 172H648V173H631ZM661 172H680V173H661ZM705 172H723V173H705ZM735 172H752V173H735ZM757 172H777V173H757ZM796 172H815V173H796ZM844 172H862V173H844ZM873 172H895V173H873ZM917 172H936V173H917ZM964 172H984V173H964ZM528 173H577V174H528ZM596 173H613V174H596ZM631 173H647V174H631ZM661 173H679V174H661ZM705 173H723V174H705ZM735 173H752V174H735ZM756 173H776V174H756ZM796 173H814V174H796ZM844 173H862V174H844ZM873 173H894V174H873ZM917 173H935V174H917ZM964 173H984V174H964ZM530 174H578V175H530ZM596 174H613V175H596ZM630 174H647V175H630ZM661 174H679V175H661ZM706 174H723V175H706ZM735 174H752V175H735ZM755 174H776V175H755ZM796 174H813V175H796ZM845 174H863V175H845ZM873 174H893V175H873ZM916 174H934V175H916ZM965 174H984V175H965ZM532 175H579V176H532ZM597 175H614V176H597ZM630 175H646V176H630ZM661 175H679V176H661ZM706 175H724V176H706ZM735 175H752V176H735ZM755 175H775V176H755ZM795 175H813V176H795ZM845 175H863V176H845ZM873 175H892V176H873ZM916 175H934V176H916ZM965 175H984V176H965ZM535 176H580V177H535ZM597 176H614V177H597ZM630 176H646V177H630ZM661 176H678V177H661ZM706 176H724V177H706ZM735 176H752V177H735ZM754 176H774V177H754ZM795 176H813V177H795ZM846 176H863V177H846ZM873 176H892V177H873ZM916 176H934V177H916ZM966 176H984V177H966ZM538 177H581V178H538ZM597 177H614V178H597ZM629 177H646V178H629ZM661 177H678V178H661ZM706 177H724V178H706ZM735 177H752V178H735ZM753 177H773V178H753ZM795 177H812V178H795ZM846 177H863V178H846ZM873 177H891V178H873ZM916 177H933V178H916ZM966 177H984V178H966ZM542 178H582V179H542ZM598 178H615V179H598ZM629 178H645V179H629ZM661 178H678V179H661ZM706 178H724V179H706ZM735 178H772V179H735ZM795 178H812V179H795ZM847 178H864V179H847ZM873 178H891V179H873ZM915 178H933V179H915ZM967 178H984V179H967ZM546 179H583V180H546ZM598 179H615V180H598ZM628 179H645V180H628ZM661 179H678V180H661ZM706 179H724V180H706ZM735 179H771V180H735ZM794 179H812V180H794ZM847 179H864V180H847ZM873 179H891V180H873ZM915 179H933V180H915ZM967 179H984V180H967ZM549 180H584V181H549ZM598 180H616V181H598ZM628 180H644V181H628ZM661 180H678V181H661ZM706 180H724V181H706ZM735 180H770V181H735ZM794 180H811V181H794ZM847 180H864V181H847ZM873 180H890V181H873ZM915 180H932V181H915ZM967 180H984V181H967ZM553 181H584V182H553ZM599 181H616V182H599ZM628 181H644V182H628ZM661 181H678V182H661ZM706 181H724V182H706ZM735 181H769V182H735ZM794 181H811V182H794ZM847 181H864V182H847ZM873 181H890V182H873ZM915 181H932V182H915ZM967 181H984V182H967ZM556 182H585V183H556ZM599 182H616V183H599ZM627 182H644V183H627ZM661 182H678V183H661ZM706 182H724V183H706ZM735 182H768V183H735ZM794 182H811V183H794ZM847 182H864V183H847ZM873 182H890V183H873ZM915 182H932V183H915ZM967 182H984V183H967ZM559 183H585V184H559ZM600 183H617V184H600ZM627 183H643V184H627ZM661 183H678V184H661ZM706 183H724V184H706ZM735 183H769V184H735ZM794 183H811V184H794ZM847 183H864V184H847ZM873 183H890V184H873ZM915 183H932V184H915ZM967 183H984V184H967ZM562 184H586V185H562ZM600 184H617V185H600ZM627 184H643V185H627ZM661 184H678V185H661ZM706 184H724V185H706ZM735 184H770V185H735ZM794 184H811V185H794ZM847 184H864V185H847ZM873 184H890V185H873ZM915 184H932V185H915ZM967 184H984V185H967ZM564 185H586V186H564ZM601 185H617V186H601ZM626 185H642V186H626ZM661 185H678V186H661ZM706 185H724V186H706ZM735 185H771V186H735ZM794 185H811V186H794ZM847 185H864V186H847ZM873 185H890V186H873ZM915 185H932V186H915ZM967 185H984V186H967ZM565 186H586V187H565ZM601 186H618V187H601ZM626 186H642V187H626ZM661 186H678V187H661ZM706 186H724V187H706ZM735 186H771V187H735ZM794 186H811V187H794ZM847 186H864V187H847ZM873 186H890V187H873ZM915 186H932V187H915ZM967 186H984V187H967ZM566 187H586V188H566ZM601 187H618V188H601ZM626 187H642V188H626ZM661 187H678V188H661ZM706 187H724V188H706ZM735 187H772V188H735ZM794 187H811V188H794ZM847 187H864V188H847ZM873 187H890V188H873ZM915 187H932V188H915ZM967 187H984V188H967ZM567 188H587V189H567ZM602 188H618V189H602ZM625 188H641V189H625ZM661 188H678V189H661ZM706 188H724V189H706ZM735 188H773V189H735ZM794 188H811V189H794ZM847 188H864V189H847ZM873 188H890V189H873ZM915 188H932V189H915ZM967 188H984V189H967ZM511 189H528V190H511ZM568 189H587V190H568ZM602 189H619V190H602ZM625 189H641V190H625ZM661 189H678V190H661ZM706 189H724V190H706ZM735 189H774V190H735ZM794 189H811V190H794ZM847 189H864V190H847ZM873 189H890V190H873ZM915 189H932V190H915ZM967 189H984V190H967ZM511 190H529V191H511ZM569 190H587V191H569ZM603 190H619V191H603ZM625 190H640V191H625ZM661 190H678V191H661ZM706 190H724V191H706ZM735 190H775V191H735ZM794 190H811V191H794ZM847 190H864V191H847ZM873 190H890V191H873ZM915 190H932V191H915ZM967 190H984V191H967ZM511 191H529V192H511ZM569 191H587V192H569ZM603 191H619V192H603ZM624 191H640V192H624ZM661 191H678V192H661ZM706 191H724V192H706ZM735 191H754V192H735ZM755 191H775V192H755ZM794 191H812V192H794ZM847 191H864V192H847ZM873 191H890V192H873ZM915 191H933V192H915ZM967 191H984V192H967ZM511 192H529V193H511ZM569 192H587V193H569ZM603 192H620V193H603ZM624 192H640V193H624ZM661 192H678V193H661ZM706 192H724V193H706ZM735 192H754V193H735ZM755 192H776V193H755ZM794 192H812V193H794ZM846 192H864V193H846ZM873 192H890V193H873ZM915 192H933V193H915ZM967 192H984V193H967ZM511 193H529V194H511ZM569 193H587V194H569ZM604 193H620V194H604ZM624 193H639V194H624ZM661 193H678V194H661ZM706 193H724V194H706ZM735 193H753V194H735ZM756 193H777V194H756ZM795 193H812V194H795ZM846 193H863V194H846ZM873 193H890V194H873ZM915 193H933V194H915ZM966 193H984V194H966ZM511 194H530V195H511ZM569 194H587V195H569ZM604 194H621V195H604ZM623 194H639V195H623ZM661 194H678V195H661ZM706 194H724V195H706ZM735 194H752V195H735ZM757 194H778V195H757ZM795 194H812V195H795ZM846 194H863V195H846ZM873 194H890V195H873ZM916 194H933V195H916ZM966 194H984V195H966ZM512 195H530V196H512ZM569 195H587V196H569ZM605 195H621V196H605ZM623 195H638V196H623ZM661 195H678V196H661ZM706 195H724V196H706ZM735 195H752V196H735ZM758 195H779V196H758ZM795 195H813V196H795ZM845 195H863V196H845ZM873 195H890V196H873ZM916 195H934V196H916ZM966 195H984V196H966ZM512 196H531V197H512ZM569 196H587V197H569ZM605 196H621V197H605ZM623 196H638V197H623ZM661 196H678V197H661ZM706 196H724V197H706ZM735 196H752V197H735ZM759 196H780V197H759ZM796 196H813V197H796ZM845 196H863V197H845ZM873 196H890V197H873ZM916 196H934V197H916ZM965 196H984V197H965ZM512 197H531V198H512ZM569 197H586V198H569ZM605 197H621V198H605ZM622 197H638V198H622ZM661 197H678V198H661ZM706 197H724V198H706ZM735 197H752V198H735ZM760 197H780V198H760ZM796 197H814V198H796ZM844 197H862V198H844ZM873 197H890V198H873ZM916 197H934V198H916ZM965 197H984V198H965ZM512 198H532V199H512ZM568 198H586V199H568ZM606 198H621V199H606ZM622 198H637V199H622ZM661 198H678V199H661ZM706 198H724V199H706ZM735 198H752V199H735ZM760 198H781V199H760ZM796 198H814V199H796ZM844 198H862V199H844ZM873 198H890V199H873ZM916 198H935V199H916ZM964 198H984V199H964ZM513 199H533V200H513ZM568 199H586V200H568ZM606 199H637V200H606ZM661 199H677V200H661ZM706 199H724V200H706ZM735 199H752V200H735ZM761 199H782V200H761ZM796 199H815V200H796ZM843 199H862V200H843ZM873 199H890V200H873ZM917 199H936V200H917ZM964 199H984V200H964ZM513 200H534V201H513ZM567 200H586V201H567ZM607 200H636V201H607ZM661 200H677V201H661ZM706 200H724V201H706ZM735 200H752V201H735ZM762 200H783V201H762ZM797 200H816V201H797ZM843 200H861V201H843ZM873 200H890V201H873ZM917 200H936V201H917ZM963 200H984V201H963ZM514 201H535V202H514ZM566 201H585V202H566ZM607 201H636V202H607ZM661 201H677V202H661ZM706 201H724V202H706ZM735 201H752V202H735ZM763 201H783V202H763ZM797 201H817V202H797ZM842 201H861V202H842ZM873 201H890V202H873ZM918 201H937V202H918ZM962 201H984V202H962ZM514 202H536V203H514ZM565 202H585V203H565ZM608 202H636V203H608ZM661 202H677V203H661ZM706 202H724V203H706ZM735 202H752V203H735ZM763 202H784V203H763ZM798 202H818V203H798ZM841 202H860V203H841ZM873 202H890V203H873ZM918 202H938V203H918ZM961 202H984V203H961ZM515 203H537V204H515ZM563 203H585V204H563ZM608 203H635V204H608ZM661 203H677V204H661ZM706 203H724V204H706ZM735 203H752V204H735ZM764 203H785V204H764ZM798 203H819V204H798ZM840 203H860V204H840ZM873 203H890V204H873ZM918 203H939V204H918ZM960 203H984V204H960ZM515 204H540V205H515ZM562 204H584V205H562ZM608 204H635V205H608ZM661 204H677V205H661ZM706 204H724V205H706ZM735 204H752V205H735ZM765 204H786V205H765ZM799 204H820V205H799ZM838 204H859V205H838ZM873 204H890V205H873ZM919 204H941V205H919ZM959 204H984V205H959ZM516 205H542V206H516ZM559 205H584V206H559ZM609 205H634V206H609ZM661 205H677V206H661ZM706 205H724V206H706ZM735 205H752V206H735ZM766 205H787V206H766ZM800 205H822V206H800ZM836 205H859V206H836ZM873 205H890V206H873ZM920 205H943V206H920ZM957 205H984V206H957ZM517 206H547V207H517ZM555 206H583V207H555ZM609 206H634V207H609ZM661 206H677V207H661ZM706 206H724V207H706ZM735 206H752V207H735ZM767 206H787V207H767ZM800 206H826V207H800ZM833 206H858V207H833ZM873 206H890V207H873ZM920 206H946V207H920ZM953 206H984V207H953ZM518 207H583V208H518ZM610 207H634V208H610ZM661 207H677V208H661ZM706 207H724V208H706ZM735 207H752V208H735ZM768 207H788V208H768ZM801 207H857V208H801ZM873 207H890V208H873ZM921 207H984V208H921ZM518 208H582V209H518ZM610 208H633V209H610ZM661 208H678V209H661ZM706 208H724V209H706ZM735 208H752V209H735ZM768 208H789V209H768ZM802 208H857V209H802ZM873 208H890V209H873ZM921 208H984V209H921ZM519 209H581V210H519ZM610 209H633V210H610ZM661 209H678V210H661ZM706 209H724V210H706ZM735 209H752V210H735ZM769 209H790V210H769ZM802 209H856V210H802ZM873 209H890V210H873ZM922 209H984V210H922ZM520 210H580V211H520ZM611 210H633V211H611ZM661 210H678V211H661ZM706 210H724V211H706ZM735 210H752V211H735ZM770 210H790V211H770ZM803 210H855V211H803ZM873 210H890V211H873ZM923 210H984V211H923ZM521 211H579V212H521ZM611 211H632V212H611ZM661 211H678V212H661ZM706 211H724V212H706ZM735 211H752V212H735ZM771 211H791V212H771ZM804 211H854V212H804ZM873 211H890V212H873ZM924 211H984V212H924ZM522 212H578V213H522ZM612 212H632V213H612ZM661 212H678V213H661ZM706 212H724V213H706ZM735 212H752V213H735ZM772 212H792V213H772ZM805 212H853V213H805ZM873 212H890V213H873ZM925 212H966V213H925ZM967 212H984V213H967ZM524 213H577V214H524ZM612 213H631V214H612ZM661 213H678V214H661ZM706 213H724V214H706ZM735 213H752V214H735ZM772 213H793V214H772ZM806 213H852V214H806ZM873 213H890V214H873ZM926 213H966V214H926ZM967 213H984V214H967ZM525 214H576V215H525ZM613 214H631V215H613ZM661 214H678V215H661ZM706 214H724V215H706ZM735 214H752V215H735ZM773 214H794V215H773ZM808 214H850V215H808ZM873 214H890V215H873ZM927 214H965V215H927ZM967 214H984V215H967ZM526 215H574V216H526ZM613 215H631V216H613ZM661 215H678V216H661ZM707 215H724V216H707ZM735 215H752V216H735ZM774 215H794V216H774ZM809 215H849V216H809ZM873 215H890V216H873ZM928 215H964V216H928ZM967 215H984V216H967ZM528 216H573V217H528ZM614 216H630V217H614ZM661 216H678V217H661ZM707 216H724V217H707ZM735 216H752V217H735ZM775 216H795V217H775ZM811 216H848V217H811ZM873 216H890V217H873ZM930 216H962V217H930ZM967 216H984V217H967ZM530 217H571V218H530ZM613 217H630V218H613ZM661 217H677V218H661ZM707 217H724V218H707ZM735 217H752V218H735ZM776 217H796V218H776ZM813 217H846V218H813ZM873 217H890V218H873ZM932 217H961V218H932ZM967 217H984V218H967ZM532 218H568V219H532ZM613 218H629V219H613ZM661 218H677V219H661ZM706 218H724V219H706ZM735 218H752V219H735ZM777 218H797V219H777ZM815 218H844V219H815ZM873 218H890V219H873ZM934 218H959V219H934ZM967 218H984V219H967ZM535 219H565V220H535ZM612 219H629V220H612ZM661 219H677V220H661ZM707 219H723V220H707ZM735 219H752V220H735ZM778 219H797V220H778ZM817 219H841V220H817ZM873 219H889V220H873ZM936 219H957V220H936ZM968 219H984V220H968ZM539 220H562V221H539ZM612 220H629V221H612ZM820 220H838V221H820ZM939 220H954V221H939ZM612 221H628V222H612ZM611 222H628V223H611ZM611 223H627V224H611ZM610 224H627V225H610ZM610 225H627V226H610ZM609 226H626V227H609ZM609 227H626V228H609ZM608 228H625V229H608ZM608 229H625V230H608ZM607 230H625V231H607ZM605 231H624V232H605ZM603 232H624V233H603ZM593 233H623V234H593ZM593 234H623V235H593ZM593 235H622V236H593ZM593 236H621V237H593ZM593 237H621V238H593ZM593 238H620V239H593ZM593 239H619V240H593ZM593 240H618V241H593ZM593 241H617V242H593ZM593 242H616V243H593ZM593 243H615V244H593ZM593 244H613V245H593ZM593 245H611V246H593ZM593 246H608V247H593Z"/>
</svg>
