<svg xmlns="http://www.w3.org/2000/svg" viewBox="0 0 1280 360" role="img" aria-labelledby="title desc">
  <title id="title">Synkord logo for light backgrounds</title>
  <desc id="desc">Transparent source-traced Synkord horizontal logo.</desc>
  <defs>
    <linearGradient id="synkord-blue" x1="250" y1="70" x2="430" y2="285" gradientUnits="userSpaceOnUse">
      <stop offset="0" stop-color="#1267ff"/>
      <stop offset="1" stop-color="#0047e5"/>
    </linearGradient>
  </defs>
  <path fill="url(#synkord-blue)" d="M307 96H311V97H307ZM304 97H314V98H304ZM303 98H315V99H303ZM301 99H317V100H301ZM370 99H403V100H370ZM300 100H318V101H300ZM363 100H411V101H363ZM298 101H319V102H298ZM358 101H416V102H358ZM297 102H320V103H297ZM356 102H419V103H356ZM296 103H321V104H296ZM353 103H422V104H353ZM295 104H322V105H295ZM351 104H425V105H351ZM294 105H322V106H294ZM349 105H427V106H349ZM293 106H323V107H293ZM347 106H429V107H347ZM292 107H323V108H292ZM346 107H431V108H346ZM291 108H322V109H291ZM344 108H433V109H344ZM290 109H321V110H290ZM343 109H434V110H343ZM289 110H320V111H289ZM342 110H436V111H342ZM288 111H318V112H288ZM340 111H437V112H340ZM287 112H317V113H287ZM339 112H439V113H339ZM286 113H315V114H286ZM338 113H440V114H338ZM286 114H314V115H286ZM337 114H441V115H337ZM285 115H313V116H285ZM336 115H442V116H336ZM284 116H312V117H284ZM335 116H443V117H335ZM284 117H311V118H284ZM334 117H444V118H334ZM283 118H309V119H283ZM333 118H445V119H333ZM282 119H308V120H282ZM332 119H446V120H332ZM282 120H308V121H282ZM331 120H369V121H331ZM405 120H447V121H405ZM281 121H307V122H281ZM331 121H365V122H331ZM410 121H448V122H410ZM281 122H306V123H281ZM330 122H362V123H330ZM413 122H448V123H413ZM280 123H305V124H280ZM329 123H360V124H329ZM416 123H448V124H416ZM280 124H304V125H280ZM328 124H358V125H328ZM418 124H449V125H418ZM279 125H304V126H279ZM328 125H357V126H328ZM419 125H449V126H419ZM279 126H303V127H279ZM327 126H355V127H327ZM420 126H449V127H420ZM278 127H302V128H278ZM327 127H354V128H327ZM420 127H449V128H420ZM278 128H301V129H278ZM326 128H353V129H326ZM420 128H449V129H420ZM278 129H301V130H278ZM325 129H351V130H325ZM420 129H449V130H420ZM277 130H300V131H277ZM325 130H351V131H325ZM420 130H449V131H420ZM277 131H300V132H277ZM324 131H350V132H324ZM420 131H449V132H420ZM276 132H299V133H276ZM324 132H349V133H324ZM420 132H449V133H420ZM276 133H299V134H276ZM324 133H348V134H324ZM389 133H390V134H389ZM421 133H448V134H421ZM276 134H299V135H276ZM323 134H347V135H323ZM387 134H390V135H387ZM421 134H448V135H421ZM276 135H298V136H276ZM323 135H346V136H323ZM385 135H390V136H385ZM422 135H447V136H422ZM275 136H298V137H275ZM322 136H346V137H322ZM383 136H390V137H383ZM422 136H447V137H422ZM275 137H298V138H275ZM322 137H345V138H322ZM382 137H391V138H382ZM423 137H446V138H423ZM275 138H297V139H275ZM322 138H345V139H322ZM380 138H391V139H380ZM424 138H445V139H424ZM275 139H297V140H275ZM322 139H344V140H322ZM379 139H391V140H379ZM425 139H444V140H425ZM275 140H297V141H275ZM321 140H344V141H321ZM377 140H391V141H377ZM426 140H443V141H426ZM275 141H297V142H275ZM321 141H343V142H321ZM376 141H391V142H376ZM428 141H441V142H428ZM275 142H296V143H275ZM321 142H343V143H321ZM374 142H391V143H374ZM429 142H439V143H429ZM274 143H296V144H274ZM320 143H343V144H320ZM372 143H391V144H372ZM274 144H296V145H274ZM320 144H342V145H320ZM371 144H391V145H371ZM274 145H296V146H274ZM320 145H342V146H320ZM369 145H391V146H369ZM274 146H296V147H274ZM320 146H342V147H320ZM368 146H391V147H368ZM274 147H296V148H274ZM320 147H342V148H320ZM366 147H395V148H366ZM274 148H296V149H274ZM320 148H341V149H320ZM365 148H399V149H365ZM274 149H296V150H274ZM320 149H341V150H320ZM365 149H402V150H365ZM274 150H295V151H274ZM320 150H341V151H320ZM366 150H406V151H366ZM274 151H296V152H274ZM320 151H341V152H320ZM369 151H408V152H369ZM274 152H296V153H274ZM320 152H341V153H320ZM372 152H411V153H372ZM274 153H296V154H274ZM320 153H341V154H320ZM374 153H413V154H374ZM274 154H296V155H274ZM320 154H341V155H320ZM375 154H415V155H375ZM275 155H296V156H275ZM320 155H341V156H320ZM377 155H417V156H377ZM275 156H296V157H275ZM320 156H341V157H320ZM378 156H419V157H378ZM275 157H296V158H275ZM320 157H341V158H320ZM379 157H421V158H379ZM275 158H297V159H275ZM320 158H341V159H320ZM380 158H422V159H380ZM275 159H297V160H275ZM320 159H341V160H320ZM381 159H424V160H381ZM275 160H297V161H275ZM320 160H341V161H320ZM382 160H425V161H382ZM276 161H298V162H276ZM320 161H341V162H320ZM357 161H367V162H357ZM383 161H427V162H383ZM276 162H298V163H276ZM321 162H340V163H321ZM354 162H370V163H354ZM384 162H428V163H384ZM276 163H298V164H276ZM321 163H338V164H321ZM353 163H371V164H353ZM385 163H429V164H385ZM277 164H299V165H277ZM323 164H336V165H323ZM351 164H373V165H351ZM386 164H430V165H386ZM277 165H299V166H277ZM324 165H333V166H324ZM350 165H374V166H350ZM386 165H431V166H386ZM277 166H300V167H277ZM326 166H329V167H326ZM349 166H375V167H349ZM387 166H432V167H387ZM277 167H300V168H277ZM349 167H376V168H349ZM388 167H433V168H388ZM278 168H301V169H278ZM348 168H377V169H348ZM388 168H392V169H388ZM393 168H434V169H393ZM278 169H301V170H278ZM347 169H377V170H347ZM389 169H392V170H389ZM398 169H435V170H398ZM279 170H302V171H279ZM347 170H378V171H347ZM390 170H392V171H390ZM401 170H436V171H401ZM279 171H303V172H279ZM346 171H378V172H346ZM390 171H391V172H390ZM403 171H437V172H403ZM279 172H303V173H279ZM346 172H379V173H346ZM405 172H437V173H405ZM280 173H304V174H280ZM346 173H379V174H346ZM407 173H438V174H407ZM280 174H305V175H280ZM346 174H379V175H346ZM409 174H439V175H409ZM281 175H306V176H281ZM346 175H379V176H346ZM411 175H439V176H411ZM281 176H307V177H281ZM345 176H379V177H345ZM412 176H440V177H412ZM282 177H308V178H282ZM345 177H379V178H345ZM413 177H441V178H413ZM282 178H309V179H282ZM346 178H379V179H346ZM414 178H441V179H414ZM283 179H310V180H283ZM346 179H379V180H346ZM416 179H442V180H416ZM284 180H311V181H284ZM346 180H379V181H346ZM417 180H442V181H417ZM284 181H313V182H284ZM346 181H379V182H346ZM418 181H443V182H418ZM285 182H314V183H285ZM346 182H378V183H346ZM418 182H443V183H418ZM286 183H315V184H286ZM347 183H378V184H347ZM419 183H444V184H419ZM287 184H317V185H287ZM347 184H378V185H347ZM420 184H444V185H420ZM287 185H319V186H287ZM348 185H377V186H348ZM421 185H445V186H421ZM288 186H321V187H288ZM348 186H376V187H348ZM422 186H445V187H422ZM289 187H323V188H289ZM349 187H376V188H349ZM422 187H446V188H422ZM290 188H325V189H290ZM335 188H337V189H335ZM350 188H375V189H350ZM423 188H446V189H423ZM291 189H327V190H291ZM335 189H338V190H335ZM351 189H374V190H351ZM423 189H446V190H423ZM292 190H330V191H292ZM335 190H339V191H335ZM352 190H372V191H352ZM424 190H446V191H424ZM293 191H332V192H293ZM335 191H340V192H335ZM353 191H371V192H353ZM424 191H447V192H424ZM294 192H341V193H294ZM355 192H369V193H355ZM425 192H447V193H425ZM295 193H342V194H295ZM358 193H367V194H358ZM425 193H447V194H425ZM296 194H343V195H296ZM426 194H448V195H426ZM297 195H343V196H297ZM426 195H448V196H426ZM299 196H345V197H299ZM389 196H401V197H389ZM426 196H448V197H426ZM300 197H346V198H300ZM382 197H403V198H382ZM427 197H448V198H427ZM301 198H347V199H301ZM382 198H404V199H382ZM427 198H448V199H427ZM303 199H348V200H303ZM382 199H405V200H382ZM427 199H449V200H427ZM304 200H350V201H304ZM382 200H405V201H382ZM427 200H449V201H427ZM306 201H351V202H306ZM382 201H406V202H382ZM428 201H449V202H428ZM308 202H353V203H308ZM382 202H407V203H382ZM428 202H449V203H428ZM310 203H355V204H310ZM382 203H407V204H382ZM428 203H449V204H428ZM312 204H356V205H312ZM382 204H407V205H382ZM428 204H449V205H428ZM314 205H358V206H314ZM382 205H405V206H382ZM428 205H449V206H428ZM316 206H360V207H316ZM382 206H404V207H382ZM428 206H449V207H428ZM318 207H362V208H318ZM382 207H404V208H382ZM428 207H449V208H428ZM321 208H362V209H321ZM382 208H403V209H382ZM428 208H449V209H428ZM323 209H361V210H323ZM382 209H403V210H382ZM428 209H449V210H428ZM326 210H359V211H326ZM382 210H403V211H382ZM428 210H449V211H428ZM328 211H358V212H328ZM382 211H403V212H382ZM428 211H449V212H428ZM331 212H356V213H331ZM381 212H403V213H381ZM428 212H449V213H428ZM333 213H355V214H333ZM381 213H403V214H381ZM428 213H449V214H428ZM335 214H354V215H335ZM381 214H403V215H381ZM428 214H449V215H428ZM288 215H292V216H288ZM335 215H352V216H335ZM381 215H402V216H381ZM428 215H449V216H428ZM284 216H295V217H284ZM335 216H351V217H335ZM380 216H402V217H380ZM427 216H449V217H427ZM282 217H297V218H282ZM335 217H349V218H335ZM380 217H402V218H380ZM427 217H449V218H427ZM281 218H299V219H281ZM335 218H348V219H335ZM380 218H402V219H380ZM427 218H448V219H427ZM279 219H300V220H279ZM335 219H346V220H335ZM379 219H401V220H379ZM427 219H448V220H427ZM278 220H301V221H278ZM335 220H345V221H335ZM379 220H401V221H379ZM426 220H448V221H426ZM277 221H302V222H277ZM335 221H343V222H335ZM378 221H401V222H378ZM426 221H448V222H426ZM277 222H302V223H277ZM335 222H342V223H335ZM378 222H400V223H378ZM426 222H448V223H426ZM276 223H303V224H276ZM335 223H340V224H335ZM377 223H400V224H377ZM425 223H447V224H425ZM276 224H303V225H276ZM335 224H338V225H335ZM376 224H400V225H376ZM425 224H447V225H425ZM275 225H304V226H275ZM335 225H336V226H335ZM375 225H399V226H375ZM424 225H447V226H424ZM275 226H304V227H275ZM375 226H399V227H375ZM424 226H446V227H424ZM275 227H304V228H275ZM374 227H398V228H374ZM423 227H446V228H423ZM275 228H304V229H275ZM373 228H398V229H373ZM423 228H446V229H423ZM274 229H304V230H274ZM372 229H397V230H372ZM422 229H445V230H422ZM274 230H304V231H274ZM371 230H397V231H371ZM422 230H445V231H422ZM275 231H304V232H275ZM370 231H396V232H370ZM421 231H444V232H421ZM275 232H305V233H275ZM368 232H396V233H368ZM420 232H444V233H420ZM275 233H307V234H275ZM367 233H395V234H367ZM420 233H444V234H420ZM275 234H308V235H275ZM365 234H394V235H365ZM419 234H443V235H419ZM276 235H310V236H276ZM364 235H394V236H364ZM418 235H443V236H418ZM276 236H312V237H276ZM362 236H393V237H362ZM417 236H442V237H417ZM277 237H316V238H277ZM359 237H392V238H359ZM416 237H442V238H416ZM277 238H321V239H277ZM355 238H391V239H355ZM415 238H441V239H415ZM278 239H391V240H278ZM414 239H440V240H414ZM279 240H390V241H279ZM413 240H440V241H413ZM280 241H389V242H280ZM412 241H439V242H412ZM281 242H388V243H281ZM411 242H439V243H411ZM282 243H387V244H282ZM410 243H438V244H410ZM283 244H386V245H283ZM409 244H437V245H409ZM285 245H385V246H285ZM407 245H436V246H407ZM286 246H383V247H286ZM406 246H436V247H406ZM288 247H382V248H288ZM405 247H435V248H405ZM289 248H381V249H289ZM403 248H434V249H403ZM291 249H380V250H291ZM402 249H433V250H402ZM292 250H378V251H292ZM401 250H432V251H401ZM294 251H376V252H294ZM399 251H431V252H399ZM296 252H375V253H296ZM399 252H430V253H399ZM298 253H373V254H298ZM400 253H429V254H400ZM300 254H371V255H300ZM401 254H428V255H401ZM303 255H368V256H303ZM402 255H427V256H402ZM305 256H366V257H305ZM404 256H425V257H404ZM308 257H363V258H308ZM405 257H424V258H405ZM313 258H359V259H313ZM406 258H423V259H406ZM320 259H349V260H320ZM407 259H421V260H407ZM408 260H420V261H408ZM410 261H418V262H410ZM413 262H415V263H413Z"/>
  <path fill="#05091f" d="M532 124H545V125H532ZM527 125H551V126H527ZM738 125H756V126H738ZM987 125H1005V126H987ZM523 126H555V127H523ZM738 126H756V127H738ZM987 126H1005V127H987ZM520 127H557V128H520ZM738 127H756V128H738ZM987 127H1005V128H987ZM518 128H559V129H518ZM738 128H756V129H738ZM987 128H1005V129H987ZM516 129H561V130H516ZM738 129H756V130H738ZM987 129H1005V130H987ZM514 130H563V131H514ZM738 130H756V131H738ZM987 130H1005V131H987ZM513 131H564V132H513ZM738 131H756V132H738ZM987 131H1005V132H987ZM512 132H565V133H512ZM738 132H756V133H738ZM987 132H1005V133H987ZM510 133H566V134H510ZM738 133H756V134H738ZM987 133H1005V134H987ZM510 134H568V135H510ZM738 134H756V135H738ZM987 134H1005V135H987ZM509 135H569V136H509ZM738 135H756V136H738ZM987 135H1005V136H987ZM508 136H569V137H508ZM738 136H756V137H738ZM987 136H1005V137H987ZM507 137H570V138H507ZM738 137H756V138H738ZM987 137H1005V138H987ZM506 138H571V139H506ZM738 138H756V139H738ZM987 138H1005V139H987ZM506 139H572V140H506ZM738 139H756V140H738ZM987 139H1005V140H987ZM505 140H530V141H505ZM546 140H572V141H546ZM738 140H756V141H738ZM987 140H1005V141H987ZM505 141H527V142H505ZM549 141H573V142H549ZM738 141H756V142H738ZM987 141H1005V142H987ZM504 142H526V143H504ZM550 142H573V143H550ZM738 142H756V143H738ZM987 142H1005V143H987ZM504 143H524V144H504ZM552 143H574V144H552ZM738 143H756V144H738ZM987 143H1005V144H987ZM504 144H524V145H504ZM553 144H574V145H553ZM738 144H756V145H738ZM987 144H1005V145H987ZM503 145H523V146H503ZM554 145H574V146H554ZM738 145H756V146H738ZM987 145H1005V146H987ZM503 146H522V147H503ZM555 146H575V147H555ZM738 146H756V147H738ZM987 146H1005V147H987ZM503 147H522V148H503ZM555 147H575V148H555ZM738 147H756V148H738ZM987 147H1005V148H987ZM503 148H521V149H503ZM556 148H575V149H556ZM738 148H756V149H738ZM987 148H1005V149H987ZM364 149H365V150H364ZM503 149H521V150H503ZM556 149H575V150H556ZM738 149H756V150H738ZM987 149H1005V150H987ZM503 150H521V151H503ZM557 150H575V151H557ZM697 150H700V151H697ZM738 150H756V151H738ZM833 150H843V151H833ZM987 150H1005V151H987ZM503 151H521V152H503ZM557 151H575V152H557ZM691 151H706V152H691ZM738 151H756V152H738ZM828 151H849V152H828ZM923 151H926V152H923ZM957 151H971V152H957ZM987 151H1005V152H987ZM503 152H521V153H503ZM557 152H575V153H557ZM590 152H597V153H590ZM634 152H636V153H634ZM637 152H653V153H637ZM672 152H676V153H672ZM687 152H709V153H687ZM738 152H756V153H738ZM791 152H802V153H791ZM825 152H852V153H825ZM886 152H903V153H886ZM917 152H928V153H917ZM954 152H975V153H954ZM987 152H1005V153H987ZM503 153H522V154H503ZM557 153H575V154H557ZM580 153H599V154H580ZM634 153H653V154H634ZM659 153H676V154H659ZM685 153H712V154H685ZM738 153H756V154H738ZM780 153H802V154H780ZM822 153H855V154H822ZM886 153H903V154H886ZM914 153H928V154H914ZM951 153H977V154H951ZM987 153H1005V154H987ZM503 154H522V155H503ZM581 154H599V155H581ZM634 154H652V155H634ZM659 154H677V155H659ZM684 154H714V155H684ZM738 154H756V155H738ZM780 154H800V155H780ZM820 154H857V155H820ZM886 154H903V155H886ZM912 154H928V155H912ZM949 154H979V155H949ZM987 154H1005V155H987ZM503 155H522V156H503ZM581 155H600V156H581ZM633 155H652V156H633ZM659 155H677V156H659ZM682 155H715V156H682ZM738 155H756V156H738ZM779 155H799V156H779ZM818 155H859V156H818ZM886 155H903V156H886ZM911 155H928V156H911ZM947 155H980V156H947ZM987 155H1005V156H987ZM503 156H523V157H503ZM582 156H600V157H582ZM633 156H651V157H633ZM659 156H677V157H659ZM681 156H716V157H681ZM738 156H756V157H738ZM778 156H798V157H778ZM817 156H860V157H817ZM886 156H903V157H886ZM910 156H928V157H910ZM946 156H982V157H946ZM987 156H1005V157H987ZM503 157H524V158H503ZM582 157H601V158H582ZM632 157H651V158H632ZM659 157H677V158H659ZM680 157H717V158H680ZM738 157H756V158H738ZM777 157H798V158H777ZM815 157H862V158H815ZM886 157H903V158H886ZM908 157H928V158H908ZM944 157H983V158H944ZM987 157H1005V158H987ZM503 158H525V159H503ZM582 158H601V159H582ZM632 158H650V159H632ZM659 158H677V159H659ZM679 158H718V159H679ZM738 158H756V159H738ZM776 158H797V159H776ZM814 158H863V159H814ZM886 158H903V159H886ZM907 158H928V159H907ZM943 158H984V159H943ZM987 158H1005V159H987ZM504 159H527V160H504ZM583 159H601V160H583ZM632 159H650V160H632ZM659 159H677V160H659ZM678 159H719V160H678ZM738 159H756V160H738ZM775 159H796V160H775ZM813 159H864V160H813ZM886 159H903V160H886ZM906 159H928V160H906ZM942 159H985V160H942ZM987 159H1005V160H987ZM504 160H529V161H504ZM583 160H602V161H583ZM631 160H650V161H631ZM659 160H677V161H659ZM678 160H720V161H678ZM738 160H756V161H738ZM774 160H795V161H774ZM812 160H865V161H812ZM886 160H903V161H886ZM906 160H928V161H906ZM941 160H986V161H941ZM987 160H1005V161H987ZM504 161H531V162H504ZM584 161H602V162H584ZM631 161H649V162H631ZM659 161H676V162H659ZM677 161H721V162H677ZM738 161H756V162H738ZM773 161H794V162H773ZM811 161H866V162H811ZM886 161H903V162H886ZM905 161H928V162H905ZM940 161H986V162H940ZM987 161H1005V162H987ZM505 162H534V163H505ZM584 162H602V163H584ZM631 162H649V163H631ZM659 162H722V163H659ZM738 162H756V163H738ZM772 162H793V163H772ZM810 162H867V163H810ZM886 162H903V163H886ZM904 162H928V163H904ZM939 162H1005V163H939ZM505 163H538V164H505ZM585 163H603V164H585ZM630 163H648V164H630ZM659 163H722V164H659ZM738 163H756V164H738ZM771 163H792V164H771ZM809 163H868V164H809ZM886 163H903V164H886ZM904 163H928V164H904ZM939 163H1005V164H939ZM506 164H543V165H506ZM585 164H603V165H585ZM630 164H648V165H630ZM659 164H723V165H659ZM738 164H756V165H738ZM770 164H791V165H770ZM808 164H869V165H808ZM886 164H928V165H886ZM938 164H1005V165H938ZM507 165H547V166H507ZM585 165H604V166H585ZM629 165H647V166H629ZM659 165H723V166H659ZM738 165H756V166H738ZM769 165H790V166H769ZM807 165H838V166H807ZM840 165H870V166H840ZM886 165H928V166H886ZM937 165H1005V166H937ZM508 166H552V167H508ZM586 166H604V167H586ZM629 166H647V167H629ZM659 166H688V167H659ZM698 166H723V167H698ZM738 166H756V167H738ZM768 166H789V167H768ZM807 166H832V167H807ZM845 166H870V167H845ZM886 166H928V167H886ZM936 166H963V167H936ZM974 166H1005V167H974ZM508 167H555V168H508ZM586 167H604V168H586ZM629 167H647V168H629ZM659 167H685V168H659ZM700 167H724V168H700ZM738 167H756V168H738ZM767 167H788V168H767ZM806 167H829V168H806ZM848 167H871V168H848ZM886 167H928V168H886ZM936 167H960V168H936ZM976 167H1005V168H976ZM509 168H558V169H509ZM587 168H605V169H587ZM628 168H646V169H628ZM659 168H684V169H659ZM702 168H724V169H702ZM738 168H756V169H738ZM766 168H787V169H766ZM806 168H827V169H806ZM849 168H872V169H849ZM886 168H928V169H886ZM935 168H958V169H935ZM978 168H1005V169H978ZM510 169H561V170H510ZM587 169H605V170H587ZM628 169H646V170H628ZM659 169H682V170H659ZM703 169H724V170H703ZM738 169H756V170H738ZM765 169H786V170H765ZM805 169H826V170H805ZM851 169H872V170H851ZM886 169H916V170H886ZM935 169H957V170H935ZM980 169H1005V170H980ZM512 170H563V171H512ZM587 170H605V171H587ZM627 170H645V171H627ZM659 170H681V171H659ZM704 170H725V171H704ZM738 170H756V171H738ZM764 170H785V171H764ZM804 170H825V171H804ZM852 170H873V171H852ZM886 170H914V171H886ZM934 170H956V171H934ZM981 170H1005V171H981ZM513 171H565V172H513ZM588 171H606V172H588ZM627 171H645V172H627ZM659 171H680V172H659ZM705 171H725V172H705ZM738 171H756V172H738ZM763 171H784V172H763ZM804 171H824V172H804ZM853 171H873V172H853ZM886 171H912V172H886ZM934 171H955V172H934ZM982 171H1005V172H982ZM515 172H567V173H515ZM588 172H606V173H588ZM627 172H644V173H627ZM659 172H680V173H659ZM705 172H725V173H705ZM738 172H756V173H738ZM762 172H783V173H762ZM804 172H823V173H804ZM854 172H873V173H854ZM886 172H910V173H886ZM933 172H954V173H933ZM983 172H1005V173H983ZM516 173H569V174H516ZM589 173H607V174H589ZM626 173H644V174H626ZM659 173H679V174H659ZM706 173H725V174H706ZM738 173H756V174H738ZM762 173H782V174H762ZM803 173H823V174H803ZM854 173H874V174H854ZM886 173H909V174H886ZM933 173H953V174H933ZM983 173H1005V174H983ZM518 174H570V175H518ZM589 174H607V175H589ZM626 174H643V175H626ZM659 174H679V175H659ZM706 174H725V175H706ZM738 174H756V175H738ZM761 174H781V175H761ZM803 174H822V175H803ZM855 174H874V175H855ZM886 174H908V175H886ZM933 174H952V175H933ZM984 174H1005V175H984ZM521 175H571V176H521ZM590 175H607V176H590ZM626 175H643V176H626ZM659 175H678V176H659ZM707 175H726V176H707ZM738 175H756V176H738ZM760 175H780V176H760ZM802 175H821V176H802ZM856 175H874V176H856ZM886 175H907V176H886ZM932 175H952V176H932ZM985 175H1005V176H985ZM524 176H572V177H524ZM590 176H608V177H590ZM625 176H643V177H625ZM659 176H678V177H659ZM707 176H726V177H707ZM738 176H756V177H738ZM759 176H779V177H759ZM802 176H821V177H802ZM856 176H875V177H856ZM886 176H907V177H886ZM932 176H951V177H932ZM985 176H1005V177H985ZM527 177H573V178H527ZM591 177H608V178H591ZM625 177H642V178H625ZM659 177H677V178H659ZM707 177H726V178H707ZM738 177H756V178H738ZM758 177H778V178H758ZM802 177H820V178H802ZM856 177H875V178H856ZM886 177H906V178H886ZM932 177H951V178H932ZM986 177H1005V178H986ZM530 178H574V179H530ZM591 178H608V179H591ZM624 178H642V179H624ZM659 178H677V179H659ZM708 178H726V179H708ZM738 178H756V179H738ZM757 178H777V179H757ZM802 178H820V179H802ZM857 178H875V179H857ZM886 178H906V179H886ZM932 178H951V179H932ZM986 178H1005V179H986ZM534 179H575V180H534ZM591 179H609V180H591ZM624 179H641V180H624ZM659 179H677V180H659ZM708 179H726V180H708ZM738 179H776V180H738ZM802 179H820V180H802ZM857 179H875V180H857ZM886 179H905V180H886ZM932 179H950V180H932ZM986 179H1005V180H986ZM538 180H575V181H538ZM592 180H609V181H592ZM624 180H641V181H624ZM659 180H677V181H659ZM708 180H726V181H708ZM738 180H775V181H738ZM802 180H820V181H802ZM857 180H875V181H857ZM886 180H905V181H886ZM932 180H950V181H932ZM986 180H1005V181H986ZM543 181H576V182H543ZM592 181H610V182H592ZM623 181H641V182H623ZM659 181H677V182H659ZM708 181H726V182H708ZM738 181H774V182H738ZM801 181H819V182H801ZM857 181H876V182H857ZM886 181H905V182H886ZM931 181H950V182H931ZM987 181H1005V182H987ZM547 182H577V183H547ZM592 182H610V183H592ZM623 182H640V183H623ZM659 182H677V183H659ZM708 182H726V183H708ZM738 182H774V183H738ZM801 182H819V183H801ZM858 182H876V183H858ZM886 182H904V183H886ZM931 182H950V183H931ZM987 182H1005V183H987ZM550 183H577V184H550ZM593 183H610V184H593ZM623 183H640V184H623ZM659 183H677V184H659ZM708 183H726V184H708ZM738 183H774V184H738ZM801 183H819V184H801ZM858 183H876V184H858ZM886 183H904V184H886ZM931 183H950V184H931ZM987 183H1005V184H987ZM553 184H577V185H553ZM593 184H611V185H593ZM622 184H639V185H622ZM659 184H677V185H659ZM708 184H726V185H708ZM738 184H776V185H738ZM801 184H819V185H801ZM858 184H876V185H858ZM886 184H904V185H886ZM931 184H949V185H931ZM987 184H1005V185H987ZM555 185H578V186H555ZM594 185H611V186H594ZM622 185H639V186H622ZM659 185H677V186H659ZM708 185H726V186H708ZM738 185H776V186H738ZM801 185H819V186H801ZM858 185H876V186H858ZM886 185H904V186H886ZM931 185H949V186H931ZM987 185H1005V186H987ZM556 186H578V187H556ZM594 186H611V187H594ZM621 186H639V187H621ZM659 186H677V187H659ZM708 186H726V187H708ZM738 186H777V187H738ZM801 186H819V187H801ZM858 186H876V187H858ZM886 186H904V187H886ZM931 186H949V187H931ZM987 186H1005V187H987ZM557 187H578V188H557ZM595 187H612V188H595ZM621 187H638V188H621ZM659 187H677V188H659ZM708 187H726V188H708ZM738 187H778V188H738ZM801 187H819V188H801ZM858 187H876V188H858ZM886 187H904V188H886ZM931 187H949V188H931ZM987 187H1005V188H987ZM558 188H578V189H558ZM595 188H612V189H595ZM621 188H638V189H621ZM659 188H677V189H659ZM708 188H726V189H708ZM738 188H779V189H738ZM801 188H819V189H801ZM858 188H876V189H858ZM886 188H904V189H886ZM931 188H950V189H931ZM987 188H1005V189H987ZM559 189H579V190H559ZM595 189H612V190H595ZM620 189H637V190H620ZM659 189H677V190H659ZM708 189H726V190H708ZM738 189H779V190H738ZM801 189H819V190H801ZM858 189H876V190H858ZM886 189H904V190H886ZM931 189H950V190H931ZM987 189H1005V190H987ZM500 190H518V191H500ZM559 190H579V191H559ZM596 190H613V191H596ZM620 190H637V191H620ZM659 190H677V191H659ZM708 190H726V191H708ZM738 190H780V191H738ZM801 190H819V191H801ZM857 190H875V191H857ZM886 190H904V191H886ZM931 190H950V191H931ZM987 190H1005V191H987ZM500 191H518V192H500ZM560 191H579V192H560ZM596 191H613V192H596ZM620 191H636V192H620ZM659 191H677V192H659ZM708 191H726V192H708ZM738 191H781V192H738ZM802 191H819V192H802ZM857 191H875V192H857ZM886 191H904V192H886ZM931 191H950V192H931ZM986 191H1005V192H986ZM500 192H518V193H500ZM560 192H579V193H560ZM597 192H614V193H597ZM619 192H636V193H619ZM659 192H677V193H659ZM708 192H726V193H708ZM738 192H759V193H738ZM761 192H782V193H761ZM802 192H820V193H802ZM857 192H875V193H857ZM886 192H904V193H886ZM932 192H950V193H932ZM986 192H1005V193H986ZM500 193H518V194H500ZM560 193H579V194H560ZM597 193H614V194H597ZM619 193H636V194H619ZM659 193H677V194H659ZM708 193H726V194H708ZM738 193H758V194H738ZM762 193H782V194H762ZM802 193H820V194H802ZM857 193H875V194H857ZM886 193H904V194H886ZM932 193H950V194H932ZM986 193H1005V194H986ZM500 194H519V195H500ZM560 194H579V195H560ZM597 194H614V195H597ZM618 194H635V195H618ZM659 194H677V195H659ZM708 194H726V195H708ZM738 194H757V195H738ZM762 194H783V195H762ZM802 194H820V195H802ZM856 194H875V195H856ZM886 194H904V195H886ZM932 194H951V195H932ZM986 194H1005V195H986ZM500 195H519V196H500ZM560 195H579V196H560ZM598 195H615V196H598ZM618 195H635V196H618ZM659 195H677V196H659ZM708 195H726V196H708ZM738 195H756V196H738ZM763 195H784V196H763ZM802 195H821V196H802ZM856 195H874V196H856ZM886 195H904V196H886ZM932 195H951V196H932ZM985 195H1005V196H985ZM501 196H520V197H501ZM560 196H579V197H560ZM598 196H615V197H598ZM618 196H634V197H618ZM659 196H677V197H659ZM708 196H726V197H708ZM738 196H756V197H738ZM764 196H785V197H764ZM803 196H821V197H803ZM856 196H874V197H856ZM886 196H904V197H886ZM932 196H952V197H932ZM985 196H1005V197H985ZM501 197H520V198H501ZM560 197H578V198H560ZM599 197H615V198H599ZM617 197H634V198H617ZM659 197H677V198H659ZM708 197H726V198H708ZM738 197H756V198H738ZM765 197H786V198H765ZM803 197H822V198H803ZM855 197H874V198H855ZM886 197H904V198H886ZM933 197H952V198H933ZM984 197H1005V198H984ZM501 198H521V199H501ZM559 198H578V199H559ZM599 198H616V199H599ZM617 198H634V199H617ZM659 198H677V199H659ZM708 198H726V199H708ZM738 198H756V199H738ZM766 198H787V199H766ZM803 198H822V199H803ZM855 198H874V199H855ZM886 198H904V199H886ZM933 198H953V199H933ZM984 198H1005V199H984ZM502 199H522V200H502ZM559 199H578V200H559ZM600 199H616V200H600ZM617 199H633V200H617ZM659 199H677V200H659ZM708 199H726V200H708ZM738 199H756V200H738ZM766 199H787V200H766ZM804 199H823V200H804ZM854 199H873V200H854ZM886 199H904V200H886ZM933 199H953V200H933ZM983 199H1005V200H983ZM502 200H523V201H502ZM558 200H578V201H558ZM600 200H633V201H600ZM659 200H677V201H659ZM708 200H726V201H708ZM738 200H756V201H738ZM767 200H788V201H767ZM804 200H824V201H804ZM853 200H873V201H853ZM886 200H904V201H886ZM934 200H954V201H934ZM982 200H1005V201H982ZM502 201H524V202H502ZM557 201H577V202H557ZM601 201H632V202H601ZM659 201H677V202H659ZM708 201H726V202H708ZM738 201H756V202H738ZM768 201H789V202H768ZM804 201H825V202H804ZM852 201H872V202H852ZM886 201H904V202H886ZM934 201H955V202H934ZM982 201H1005V202H982ZM503 202H525V203H503ZM556 202H577V203H556ZM601 202H632V203H601ZM659 202H677V203H659ZM708 202H726V203H708ZM738 202H756V203H738ZM769 202H790V203H769ZM805 202H826V203H805ZM851 202H872V203H851ZM886 202H904V203H886ZM934 202H956V203H934ZM981 202H1005V203H981ZM503 203H527V204H503ZM555 203H577V204H555ZM602 203H631V204H602ZM659 203H677V204H659ZM708 203H726V204H708ZM738 203H756V204H738ZM769 203H791V204H769ZM805 203H827V204H805ZM850 203H871V204H850ZM886 203H904V204H886ZM935 203H958V204H935ZM979 203H1005V204H979ZM504 204H529V205H504ZM553 204H576V205H553ZM602 204H631V205H602ZM659 204H677V205H659ZM708 204H726V205H708ZM738 204H756V205H738ZM770 204H791V205H770ZM806 204H829V205H806ZM849 204H871V205H849ZM886 204H904V205H886ZM935 204H959V205H935ZM978 204H1005V205H978ZM505 205H532V206H505ZM550 205H576V206H550ZM602 205H631V206H602ZM659 205H677V206H659ZM708 205H726V206H708ZM738 205H756V206H738ZM771 205H792V206H771ZM807 205H831V206H807ZM847 205H870V206H847ZM886 205H904V206H886ZM936 205H961V206H936ZM976 205H1005V206H976ZM505 206H575V207H505ZM603 206H630V207H603ZM659 206H677V207H659ZM708 206H726V207H708ZM738 206H756V207H738ZM772 206H793V207H772ZM807 206H834V207H807ZM844 206H869V207H844ZM886 206H904V207H886ZM936 206H965V207H936ZM973 206H1005V207H973ZM506 207H574V208H506ZM603 207H630V208H603ZM659 207H677V208H659ZM708 207H726V208H708ZM738 207H756V208H738ZM773 207H794V208H773ZM808 207H869V208H808ZM886 207H904V208H886ZM937 207H1005V208H937ZM507 208H574V209H507ZM604 208H629V209H604ZM659 208H677V209H659ZM708 208H726V209H708ZM738 208H756V209H738ZM773 208H795V209H773ZM809 208H868V209H809ZM886 208H904V209H886ZM938 208H1005V209H938ZM508 209H573V210H508ZM604 209H629V210H604ZM659 209H677V210H659ZM708 209H726V210H708ZM738 209H756V210H738ZM774 209H795V210H774ZM810 209H867V210H810ZM886 209H904V210H886ZM939 209H1005V210H939ZM509 210H572V211H509ZM605 210H629V211H605ZM659 210H677V211H659ZM708 210H726V211H708ZM738 210H756V211H738ZM775 210H796V211H775ZM811 210H866V211H811ZM886 210H904V211H886ZM940 210H1005V211H940ZM510 211H571V212H510ZM605 211H628V212H605ZM659 211H677V212H659ZM708 211H726V212H708ZM738 211H756V212H738ZM776 211H797V212H776ZM812 211H865V212H812ZM886 211H904V212H886ZM940 211H986V212H940ZM987 211H1005V212H987ZM511 212H570V213H511ZM605 212H628V213H605ZM659 212H677V213H659ZM708 212H726V213H708ZM738 212H756V213H738ZM777 212H798V213H777ZM813 212H864V213H813ZM886 212H904V213H886ZM941 212H985V213H941ZM987 212H1005V213H987ZM512 213H569V214H512ZM606 213H627V214H606ZM659 213H677V214H659ZM708 213H726V214H708ZM738 213H756V214H738ZM777 213H799V214H777ZM814 213H863V214H814ZM886 213H904V214H886ZM942 213H985V214H942ZM987 213H1005V214H987ZM514 214H568V215H514ZM606 214H627V215H606ZM659 214H677V215H659ZM708 214H726V215H708ZM738 214H756V215H738ZM778 214H799V215H778ZM815 214H862V215H815ZM886 214H904V215H886ZM944 214H984V215H944ZM987 214H1005V215H987ZM515 215H566V216H515ZM607 215H626V216H607ZM659 215H677V216H659ZM708 215H726V216H708ZM738 215H756V216H738ZM779 215H800V216H779ZM817 215H860V216H817ZM886 215H904V216H886ZM945 215H982V216H945ZM987 215H1005V216H987ZM517 216H565V217H517ZM607 216H626V217H607ZM659 216H677V217H659ZM708 216H726V217H708ZM738 216H756V217H738ZM780 216H801V217H780ZM818 216H859V217H818ZM886 216H904V217H886ZM946 216H981V217H946ZM987 216H1005V217H987ZM519 217H563V218H519ZM608 217H625V218H608ZM659 217H677V218H659ZM708 217H726V218H708ZM738 217H756V218H738ZM781 217H802V218H781ZM820 217H857V218H820ZM886 217H904V218H886ZM948 217H980V218H948ZM987 217H1005V218H987ZM521 218H560V219H521ZM608 218H625V219H608ZM659 218H677V219H659ZM708 218H726V219H708ZM738 218H756V219H738ZM781 218H803V219H781ZM822 218H855V219H822ZM886 218H904V219H886ZM949 218H978V219H949ZM987 218H1005V219H987ZM524 219H558V220H524ZM607 219H625V220H607ZM659 219H677V220H659ZM708 219H726V220H708ZM738 219H756V220H738ZM782 219H803V220H782ZM824 219H853V220H824ZM886 219H904V220H886ZM952 219H976V220H952ZM987 219H1005V220H987ZM528 220H554V221H528ZM607 220H624V221H607ZM660 220H661V221H660ZM827 220H850V221H827ZM955 220H974V221H955ZM533 221H549V222H533ZM607 221H624V222H607ZM831 221H846V222H831ZM958 221H970V222H958ZM606 222H623V223H606ZM606 223H623V224H606ZM605 224H623V225H605ZM605 225H622V226H605ZM604 226H622V227H604ZM604 227H621V228H604ZM603 228H621V229H603ZM602 229H620V230H602ZM601 230H620V231H601ZM600 231H619V232H600ZM598 232H619V233H598ZM587 233H618V234H587ZM587 234H618V235H587ZM587 235H617V236H587ZM587 236H617V237H587ZM587 237H616V238H587ZM587 238H615V239H587ZM587 239H615V240H587ZM587 240H614V241H587ZM587 241H613V242H587ZM587 242H612V243H587ZM587 243H611V244H587ZM587 244H609V245H587ZM587 245H608V246H587ZM587 246H605V247H587ZM587 247H602V248H587Z"/>
</svg>
