<svg xmlns="http://www.w3.org/2000/svg" viewBox="0 0 512 512" role="img" aria-label="Synkord">
  <defs>
    <linearGradient id="synkord-blue" x1="96" y1="64" x2="416" y2="448" gradientUnits="userSpaceOnUse">
      <stop offset="0" stop-color="#1267ff"/>
      <stop offset="1" stop-color="#0047e5"/>
    </linearGradient>
  </defs>
  <path fill="url(#synkord-blue)" d="M106 15H117V16H106ZM103 16H119V17H103ZM101 17H121V18H101ZM99 18H122V19H99ZM98 19H124V20H98ZM96 20H125V21H96ZM94 21H126V22H94ZM93 22H128V23H93ZM91 23H129V24H91ZM89 24H130V25H89ZM88 25H131V26H88ZM275 25H382V26H275ZM87 26H132V27H87ZM268 26H390V27H268ZM85 27H133V28H85ZM263 27H395V28H263ZM84 28H134V29H84ZM258 28H400V29H258ZM82 29H136V30H82ZM254 29H404V30H254ZM81 30H137V31H81ZM251 30H408V31H251ZM80 31H138V32H80ZM248 31H411V32H248ZM78 32H139V33H78ZM245 32H414V33H245ZM77 33H140V34H77ZM242 33H417V34H242ZM76 34H141V35H76ZM239 34H420V35H239ZM74 35H142V36H74ZM237 35H423V36H237ZM73 36H143V37H73ZM234 36H425V37H234ZM72 37H144V38H72ZM232 37H428V38H232ZM71 38H146V39H71ZM230 38H430V39H230ZM70 39H147V40H70ZM228 39H432V40H228ZM69 40H148V41H69ZM226 40H434V41H226ZM68 41H149V42H68ZM224 41H436V42H224ZM67 42H149V43H67ZM222 42H439V43H222ZM65 43H150V44H65ZM220 43H440V44H220ZM64 44H150V45H64ZM218 44H442V45H218ZM63 45H150V46H63ZM217 45H444V46H217ZM62 46H149V47H62ZM215 46H446V47H215ZM61 47H149V48H61ZM214 47H448V48H214ZM60 48H148V49H60ZM212 48H450V49H212ZM59 49H147V50H59ZM210 49H451V50H210ZM58 50H145V51H58ZM209 50H453V51H209ZM57 51H144V52H57ZM207 51H455V52H207ZM56 52H142V53H56ZM206 52H456V53H206ZM55 53H141V54H55ZM204 53H458V54H204ZM55 54H139V55H55ZM203 54H459V55H203ZM54 55H138V56H54ZM202 55H461V56H202ZM53 56H136V57H53ZM200 56H462V57H200ZM52 57H135V58H52ZM199 57H464V58H199ZM51 58H133V59H51ZM198 58H465V59H198ZM50 59H132V60H50ZM197 59H466V60H197ZM49 60H130V61H49ZM195 60H468V61H195ZM48 61H129V62H48ZM194 61H469V62H194ZM48 62H128V63H48ZM193 62H471V63H193ZM47 63H126V64H47ZM192 63H472V64H192ZM46 64H125V65H46ZM191 64H473V65H191ZM45 65H124V66H45ZM190 65H474V66H190ZM45 66H122V67H45ZM189 66H476V67H189ZM44 67H121V68H44ZM188 67H477V68H188ZM43 68H120V69H43ZM187 68H478V69H187ZM42 69H119V70H42ZM186 69H479V70H186ZM42 70H117V71H42ZM185 70H480V71H185ZM41 71H116V72H41ZM184 71H481V72H184ZM40 72H115V73H40ZM183 72H483V73H183ZM39 73H114V74H39ZM182 73H484V74H182ZM39 74H113V75H39ZM181 74H485V75H181ZM38 75H112V76H38ZM180 75H486V76H180ZM37 76H111V77H37ZM179 76H487V77H179ZM37 77H110V78H37ZM178 77H488V78H178ZM36 78H108V79H36ZM177 78H489V79H177ZM35 79H108V80H35ZM176 79H490V80H176ZM35 80H107V81H35ZM176 80H491V81H176ZM34 81H106V82H34ZM175 81H492V82H175ZM34 82H105V83H34ZM174 82H284V83H174ZM371 82H492V83H371ZM33 83H104V84H33ZM173 83H276V84H173ZM380 83H493V84H380ZM32 84H103V85H32ZM172 84H272V85H172ZM385 84H494V85H385ZM32 85H102V86H32ZM171 85H268V86H171ZM389 85H495V86H389ZM31 86H101V87H31ZM171 86H265V87H171ZM393 86H495V87H393ZM31 87H100V88H31ZM170 87H262V88H170ZM396 87H496V88H396ZM30 88H99V89H30ZM169 88H260V89H169ZM399 88H497V89H399ZM30 89H99V90H30ZM168 89H257V90H168ZM402 89H497V90H402ZM29 90H98V91H29ZM168 90H255V91H168ZM404 90H498V91H404ZM29 91H97V92H29ZM167 91H253V92H167ZM407 91H498V92H407ZM28 92H96V93H28ZM166 92H250V93H166ZM409 92H499V93H409ZM28 93H95V94H28ZM166 93H249V94H166ZM411 93H499V94H411ZM27 94H95V95H27ZM165 94H247V95H165ZM413 94H500V95H413ZM26 95H94V96H26ZM164 95H245V96H164ZM415 95H500V96H415ZM26 96H93V97H26ZM164 96H244V97H164ZM417 96H501V97H417ZM26 97H93V98H26ZM163 97H242V98H163ZM418 97H501V98H418ZM25 98H92V99H25ZM162 98H240V99H162ZM420 98H501V99H420ZM25 99H91V100H25ZM162 99H239V100H162ZM422 99H502V100H422ZM24 100H90V101H24ZM161 100H238V101H161ZM423 100H502V101H423ZM24 101H90V102H24ZM160 101H236V102H160ZM424 101H502V102H424ZM23 102H89V103H23ZM160 102H235V103H160ZM424 102H502V103H424ZM23 103H89V104H23ZM159 103H234V104H159ZM424 103H503V104H424ZM22 104H88V105H22ZM159 104H233V105H159ZM424 104H503V105H424ZM22 105H87V106H22ZM158 105H231V106H158ZM424 105H503V106H424ZM22 106H87V107H22ZM157 106H230V107H157ZM423 106H503V107H423ZM21 107H86V108H21ZM157 107H229V108H157ZM423 107H503V108H423ZM21 108H86V109H21ZM156 108H228V109H156ZM423 108H503V109H423ZM20 109H85V110H20ZM156 109H227V110H156ZM423 109H503V110H423ZM20 110H85V111H20ZM155 110H226V111H155ZM423 110H503V111H423ZM20 111H84V112H20ZM155 111H225V112H155ZM423 111H503V112H423ZM19 112H83V113H19ZM154 112H224V113H154ZM423 112H503V113H423ZM19 113H83V114H19ZM154 113H223V114H154ZM423 113H503V114H423ZM19 114H82V115H19ZM153 114H222V115H153ZM423 114H503V115H423ZM18 115H82V116H18ZM153 115H221V116H153ZM423 115H503V116H423ZM18 116H82V117H18ZM152 116H221V117H152ZM423 116H503V117H423ZM18 117H81V118H18ZM152 117H220V118H152ZM423 117H502V118H423ZM17 118H81V119H17ZM152 118H219V119H152ZM423 118H502V119H423ZM17 119H80V120H17ZM151 119H218V120H151ZM423 119H502V120H423ZM17 120H80V121H17ZM151 120H218V121H151ZM424 120H502V121H424ZM16 121H79V122H16ZM150 121H217V122H150ZM335 121H336V122H335ZM424 121H502V122H424ZM16 122H79V123H16ZM150 122H216V123H150ZM333 122H337V123H333ZM424 122H501V123H424ZM16 123H79V124H16ZM149 123H215V124H149ZM332 123H337V124H332ZM425 123H501V124H425ZM16 124H78V125H16ZM149 124H215V125H149ZM330 124H337V125H330ZM425 124H501V125H425ZM15 125H78V126H15ZM149 125H214V126H149ZM328 125H337V126H328ZM425 125H500V126H425ZM15 126H77V127H15ZM148 126H213V127H148ZM327 126H337V127H327ZM426 126H500V127H426ZM15 127H77V128H15ZM148 127H213V128H148ZM325 127H337V128H325ZM426 127H499V128H426ZM15 128H77V129H15ZM148 128H212V129H148ZM324 128H337V129H324ZM427 128H499V129H427ZM14 129H76V130H14ZM147 129H212V130H147ZM322 129H337V130H322ZM428 129H498V130H428ZM14 130H76V131H14ZM147 130H211V131H147ZM321 130H337V131H321ZM428 130H498V131H428ZM14 131H76V132H14ZM147 131H210V132H147ZM319 131H337V132H319ZM429 131H497V132H429ZM14 132H75V133H14ZM146 132H210V133H146ZM317 132H337V133H317ZM429 132H496V133H429ZM13 133H75V134H13ZM146 133H209V134H146ZM316 133H337V134H316ZM430 133H496V134H430ZM13 134H75V135H13ZM146 134H209V135H146ZM314 134H337V135H314ZM431 134H495V135H431ZM13 135H75V136H13ZM145 135H208V136H145ZM313 135H337V136H313ZM432 135H494V136H432ZM13 136H74V137H13ZM145 136H208V137H145ZM311 136H337V137H311ZM433 136H493V137H433ZM13 137H74V138H13ZM145 137H207V138H145ZM310 137H337V138H310ZM434 137H492V138H434ZM12 138H74V139H12ZM145 138H207V139H145ZM308 138H337V139H308ZM435 138H491V139H435ZM12 139H74V140H12ZM144 139H207V140H144ZM306 139H337V140H306ZM436 139H490V140H436ZM12 140H73V141H12ZM144 140H206V141H144ZM305 140H337V141H305ZM437 140H489V141H437ZM12 141H73V142H12ZM144 141H206V142H144ZM303 141H337V142H303ZM438 141H488V142H438ZM12 142H73V143H12ZM144 142H205V143H144ZM302 142H337V143H302ZM439 142H487V143H439ZM12 143H73V144H12ZM143 143H205V144H143ZM300 143H337V144H300ZM441 143H485V144H441ZM11 144H73V145H11ZM143 144H204V145H143ZM299 144H337V145H299ZM442 144H484V145H442ZM11 145H72V146H11ZM143 145H204V146H143ZM297 145H337V146H297ZM444 145H482V146H444ZM11 146H72V147H11ZM143 146H204V147H143ZM296 146H337V147H296ZM446 146H481V147H446ZM11 147H72V148H11ZM142 147H203V148H142ZM294 147H337V148H294ZM448 147H478V148H448ZM11 148H72V149H11ZM142 148H203V149H142ZM292 148H337V149H292ZM451 148H476V149H451ZM11 149H72V150H11ZM142 149H203V150H142ZM291 149H337V150H291ZM455 149H472V150H455ZM11 150H72V151H11ZM142 150H203V151H142ZM289 150H337V151H289ZM11 151H71V152H11ZM142 151H202V152H142ZM288 151H337V152H288ZM11 152H71V153H11ZM141 152H202V153H141ZM286 152H337V153H286ZM10 153H71V154H10ZM141 153H202V154H141ZM285 153H337V154H285ZM10 154H71V155H10ZM141 154H201V155H141ZM283 154H337V155H283ZM10 155H71V156H10ZM141 155H201V156H141ZM281 155H337V156H281ZM10 156H71V157H10ZM141 156H201V157H141ZM280 156H337V157H280ZM10 157H71V158H10ZM141 157H201V158H141ZM278 157H341V158H278ZM10 158H71V159H10ZM141 158H201V159H141ZM277 158H345V159H277ZM10 159H71V160H10ZM140 159H200V160H140ZM275 159H348V160H275ZM10 160H71V161H10ZM140 160H200V161H140ZM274 160H352V161H274ZM10 161H71V162H10ZM140 161H200V162H140ZM272 161H355V162H272ZM10 162H70V163H10ZM140 162H200V163H140ZM271 162H358V163H271ZM10 163H70V164H10ZM140 163H200V164H140ZM269 163H361V164H269ZM10 164H70V165H10ZM140 164H199V165H140ZM267 164H364V165H267ZM10 165H70V166H10ZM140 165H199V166H140ZM266 165H367V166H266ZM10 166H70V167H10ZM140 166H199V167H140ZM266 166H370V167H266ZM10 167H70V168H10ZM140 167H199V168H140ZM267 167H373V168H267ZM10 168H70V169H10ZM140 168H199V169H140ZM269 168H375V169H269ZM10 169H70V170H10ZM140 169H199V170H140ZM272 169H378V170H272ZM10 170H70V171H10ZM140 170H199V171H140ZM274 170H381V171H274ZM10 171H70V172H10ZM140 171H199V172H140ZM277 171H383V172H277ZM10 172H70V173H10ZM140 172H199V173H140ZM278 172H386V173H278ZM10 173H71V174H10ZM139 173H199V174H139ZM280 173H388V174H280ZM10 174H71V175H10ZM139 174H199V175H139ZM282 174H390V175H282ZM10 175H71V176H10ZM139 175H199V176H139ZM284 175H393V176H284ZM10 176H71V177H10ZM139 176H199V177H139ZM286 176H395V177H286ZM10 177H71V178H10ZM139 177H199V178H139ZM287 177H397V178H287ZM10 178H71V179H10ZM139 178H199V179H139ZM289 178H399V179H289ZM10 179H71V180H10ZM139 179H199V180H139ZM290 179H401V180H290ZM10 180H71V181H10ZM139 180H199V181H139ZM292 180H403V181H292ZM10 181H71V182H10ZM139 181H199V182H139ZM293 181H405V182H293ZM11 182H72V183H11ZM139 182H199V183H139ZM295 182H407V183H295ZM11 183H72V184H11ZM139 183H199V184H139ZM296 183H409V184H296ZM11 184H72V185H11ZM139 184H199V185H139ZM297 184H411V185H297ZM11 185H72V186H11ZM139 185H199V186H139ZM299 185H412V186H299ZM11 186H72V187H11ZM139 186H199V187H139ZM300 186H414V187H300ZM11 187H72V188H11ZM139 187H199V188H139ZM301 187H416V188H301ZM11 188H72V189H11ZM139 188H199V189H139ZM302 188H417V189H302ZM11 189H73V190H11ZM139 189H199V190H139ZM304 189H419V190H304ZM12 190H73V191H12ZM139 190H199V191H139ZM305 190H421V191H305ZM12 191H73V192H12ZM139 191H199V192H139ZM306 191H422V192H306ZM12 192H73V193H12ZM139 192H199V193H139ZM307 192H424V193H307ZM12 193H73V194H12ZM139 193H199V194H139ZM308 193H425V194H308ZM12 194H74V195H12ZM139 194H199V195H139ZM309 194H427V195H309ZM12 195H74V196H12ZM139 195H199V196H139ZM310 195H428V196H310ZM13 196H74V197H13ZM139 196H199V197H139ZM311 196H429V197H311ZM13 197H75V198H13ZM139 197H199V198H139ZM312 197H431V198H312ZM13 198H75V199H13ZM139 198H199V199H139ZM313 198H432V199H313ZM13 199H75V200H13ZM139 199H199V200H139ZM314 199H433V200H314ZM13 200H75V201H13ZM139 200H198V201H139ZM315 200H435V201H315ZM14 201H76V202H14ZM139 201H198V202H139ZM253 201H268V202H253ZM316 201H436V202H316ZM14 202H76V203H14ZM139 202H198V203H139ZM248 202H272V203H248ZM317 202H437V203H317ZM14 203H76V204H14ZM140 203H197V204H140ZM245 203H275V204H245ZM317 203H439V204H317ZM14 204H77V205H14ZM140 204H196V205H140ZM243 204H278V205H243ZM318 204H440V205H318ZM14 205H77V206H14ZM141 205H196V206H141ZM240 205H280V206H240ZM319 205H441V206H319ZM15 206H77V207H15ZM142 206H194V207H142ZM238 206H282V207H238ZM320 206H442V207H320ZM15 207H78V208H15ZM142 207H193V208H142ZM237 207H284V208H237ZM321 207H443V208H321ZM15 208H78V209H15ZM144 208H191V209H144ZM235 208H285V209H235ZM321 208H444V209H321ZM15 209H79V210H15ZM145 209H188V210H145ZM234 209H287V210H234ZM322 209H445V210H322ZM16 210H79V211H16ZM146 210H184V211H146ZM232 210H288V211H232ZM323 210H447V211H323ZM16 211H79V212H16ZM147 211H180V212H147ZM231 211H289V212H231ZM324 211H448V212H324ZM16 212H80V213H16ZM148 212H176V213H148ZM230 212H290V213H230ZM324 212H449V213H324ZM16 213H80V214H16ZM150 213H172V214H150ZM229 213H291V214H229ZM325 213H450V214H325ZM17 214H81V215H17ZM151 214H167V215H151ZM228 214H292V215H228ZM326 214H451V215H326ZM17 215H81V216H17ZM152 215H163V216H152ZM227 215H293V216H227ZM327 215H452V216H327ZM17 216H82V217H17ZM155 216H158V217H155ZM226 216H294V217H226ZM327 216H453V217H327ZM18 217H82V218H18ZM225 217H295V218H225ZM328 217H454V218H328ZM18 218H82V219H18ZM224 218H296V219H224ZM329 218H455V219H329ZM18 219H83V220H18ZM223 219H297V220H223ZM329 219H456V220H329ZM19 220H84V221H19ZM222 220H298V221H222ZM330 220H341V221H330ZM345 220H457V221H345ZM19 221H84V222H19ZM222 221H298V222H222ZM331 221H341V222H331ZM348 221H458V222H348ZM19 222H85V223H19ZM221 222H299V223H221ZM332 222H341V223H332ZM352 222H458V223H352ZM20 223H85V224H20ZM220 223H300V224H220ZM332 223H341V224H332ZM355 223H459V224H355ZM20 224H86V225H20ZM220 224H300V225H220ZM333 224H341V225H333ZM358 224H460V225H358ZM20 225H86V226H20ZM219 225H301V226H219ZM334 225H341V226H334ZM360 225H461V226H360ZM21 226H87V227H21ZM218 226H301V227H218ZM334 226H340V227H334ZM364 226H462V227H364ZM21 227H87V228H21ZM218 227H302V228H218ZM335 227H340V228H335ZM366 227H463V228H366ZM22 228H88V229H22ZM217 228H302V229H217ZM335 228H340V229H335ZM368 228H463V229H368ZM22 229H89V230H22ZM217 229H303V230H217ZM336 229H340V230H336ZM371 229H464V230H371ZM23 230H89V231H23ZM216 230H303V231H216ZM337 230H340V231H337ZM373 230H465V231H373ZM23 231H90V232H23ZM216 231H304V232H216ZM375 231H466V232H375ZM23 232H91V233H23ZM216 232H304V233H216ZM377 232H467V233H377ZM24 233H91V234H24ZM215 233H304V234H215ZM379 233H467V234H379ZM24 234H92V235H24ZM215 234H305V235H215ZM381 234H468V235H381ZM25 235H93V236H25ZM215 235H305V236H215ZM383 235H469V236H383ZM25 236H94V237H25ZM214 236H305V237H214ZM385 236H470V237H385ZM26 237H94V238H26ZM214 237H305V238H214ZM386 237H471V238H386ZM26 238H95V239H26ZM214 238H306V239H214ZM388 238H471V239H388ZM27 239H96V240H27ZM214 239H306V240H214ZM390 239H472V240H390ZM27 240H97V241H27ZM213 240H306V241H213ZM391 240H473V241H391ZM27 241H98V242H27ZM213 241H306V242H213ZM393 241H473V242H393ZM28 242H99V243H28ZM213 242H306V243H213ZM394 242H474V243H394ZM29 243H99V244H29ZM213 243H307V244H213ZM395 243H475V244H395ZM29 244H100V245H29ZM213 244H307V245H213ZM397 244H475V245H397ZM30 245H101V246H30ZM213 245H307V246H213ZM398 245H476V246H398ZM30 246H102V247H30ZM213 246H307V247H213ZM399 246H477V247H399ZM30 247H103V248H30ZM213 247H307V248H213ZM401 247H477V248H401ZM31 248H104V249H31ZM213 248H307V249H213ZM402 248H478V249H402ZM32 249H105V250H32ZM213 249H307V250H213ZM403 249H478V250H403ZM32 250H106V251H32ZM213 250H307V251H213ZM404 250H479V251H404ZM33 251H107V252H33ZM213 251H307V252H213ZM405 251H480V252H405ZM33 252H108V253H33ZM213 252H307V253H213ZM406 252H480V253H406ZM34 253H109V254H34ZM213 253H306V254H213ZM407 253H481V254H407ZM35 254H110V255H35ZM213 254H306V255H213ZM408 254H481V255H408ZM35 255H111V256H35ZM213 255H306V256H213ZM409 255H482V256H409ZM36 256H112V257H36ZM214 256H306V257H214ZM410 256H482V257H410ZM37 257H113V258H37ZM214 257H306V258H214ZM411 257H483V258H411ZM37 258H115V259H37ZM214 258H306V259H214ZM412 258H484V259H412ZM38 259H116V260H38ZM214 259H305V260H214ZM413 259H484V260H413ZM38 260H117V261H38ZM214 260H305V261H214ZM414 260H484V261H414ZM39 261H118V262H39ZM215 261H305V262H215ZM415 261H485V262H415ZM40 262H120V263H40ZM215 262H304V263H215ZM416 262H485V263H416ZM40 263H121V264H40ZM215 263H304V264H215ZM416 263H486V264H416ZM41 264H123V265H41ZM216 264H304V265H216ZM417 264H486V265H417ZM42 265H124V266H42ZM216 265H303V266H216ZM418 265H487V266H418ZM43 266H126V267H43ZM217 266H303V267H217ZM419 266H487V267H419ZM43 267H127V268H43ZM217 267H302V268H217ZM419 267H488V268H419ZM44 268H129V269H44ZM218 268H302V269H218ZM420 268H488V269H420ZM45 269H130V270H45ZM218 269H301V270H218ZM421 269H489V270H421ZM45 270H132V271H45ZM219 270H301V271H219ZM422 270H489V271H422ZM46 271H134V272H46ZM219 271H300V272H219ZM422 271H490V272H422ZM47 272H136V273H47ZM220 272H300V273H220ZM423 272H490V273H423ZM48 273H137V274H48ZM220 273H299V274H220ZM424 273H491V274H424ZM49 274H139V275H49ZM221 274H298V275H221ZM424 274H491V275H424ZM49 275H142V276H49ZM222 275H298V276H222ZM425 275H491V276H425ZM50 276H144V277H50ZM184 276H185V277H184ZM223 276H297V277H223ZM426 276H492V277H426ZM51 277H146V278H51ZM183 277H186V278H183ZM223 277H296V278H223ZM426 277H492V278H426ZM52 278H148V279H52ZM183 278H187V279H183ZM224 278H295V279H224ZM427 278H493V279H427ZM53 279H150V280H53ZM183 279H188V280H183ZM225 279H295V280H225ZM427 279H493V280H427ZM54 280H152V281H54ZM183 280H189V281H183ZM226 280H294V281H226ZM428 280H493V281H428ZM54 281H154V282H54ZM183 281H190V282H183ZM227 281H293V282H227ZM429 281H494V282H429ZM55 282H156V283H55ZM183 282H191V283H183ZM228 282H292V283H228ZM429 282H494V283H429ZM56 283H159V284H56ZM183 283H191V284H183ZM229 283H291V284H229ZM430 283H494V284H430ZM57 284H161V285H57ZM183 284H192V285H183ZM230 284H289V285H230ZM430 284H495V285H430ZM58 285H163V286H58ZM182 285H193V286H182ZM232 285H288V286H232ZM431 285H495V286H431ZM59 286H165V287H59ZM182 286H194V287H182ZM233 286H287V287H233ZM431 286H495V287H431ZM60 287H168V288H60ZM182 287H195V288H182ZM234 287H286V288H234ZM432 287H496V288H432ZM61 288H170V289H61ZM182 288H195V289H182ZM236 288H284V289H236ZM432 288H496V289H432ZM62 289H172V290H62ZM182 289H196V290H182ZM237 289H282V290H237ZM433 289H496V290H433ZM63 290H174V291H63ZM182 290H197V291H182ZM239 290H280V291H239ZM433 290H496V291H433ZM64 291H177V292H64ZM182 291H198V292H182ZM241 291H278V292H241ZM434 291H497V292H434ZM65 292H179V293H65ZM182 292H199V293H182ZM244 292H276V293H244ZM434 292H497V293H434ZM66 293H181V294H66ZM182 293H199V294H182ZM247 293H273V294H247ZM435 293H497V294H435ZM67 294H200V295H67ZM250 294H270V295H250ZM435 294H498V295H435ZM68 295H201V296H68ZM256 295H263V296H256ZM435 295H498V296H435ZM69 296H202V297H69ZM436 296H498V297H436ZM70 297H203V298H70ZM436 297H498V298H436ZM72 298H204V299H72ZM436 298H499V299H436ZM73 299H205V300H73ZM437 299H499V300H437ZM74 300H205V301H74ZM437 300H499V301H437ZM75 301H207V302H75ZM437 301H499V302H437ZM77 302H207V303H77ZM438 302H500V303H438ZM78 303H208V304H78ZM438 303H500V304H438ZM79 304H209V305H79ZM439 304H500V305H439ZM80 305H210V306H80ZM318 305H368V306H318ZM439 305H500V306H439ZM81 306H211V307H81ZM316 306H370V307H316ZM439 306H500V307H439ZM83 307H213V308H83ZM315 307H371V308H315ZM439 307H501V308H439ZM84 308H214V309H84ZM314 308H372V309H314ZM440 308H501V309H440ZM85 309H215V310H85ZM314 309H373V310H314ZM440 309H501V310H440ZM87 310H216V311H87ZM314 310H374V311H314ZM440 310H501V311H440ZM88 311H217V312H88ZM314 311H375V312H314ZM440 311H501V312H440ZM90 312H218V313H90ZM314 312H376V313H314ZM441 312H501V313H441ZM91 313H220V314H91ZM314 313H377V314H314ZM441 313H502V314H441ZM93 314H221V315H93ZM314 314H378V315H314ZM441 314H502V315H441ZM94 315H222V316H94ZM314 315H379V316H314ZM441 315H502V316H441ZM96 316H224V317H96ZM314 316H380V317H314ZM441 316H502V317H441ZM97 317H225V318H97ZM314 317H381V318H314ZM442 317H502V318H442ZM99 318H226V319H99ZM314 318H382V319H314ZM442 318H502V319H442ZM101 319H228V320H101ZM314 319H382V320H314ZM442 319H502V320H442ZM102 320H229V321H102ZM314 320H382V321H314ZM442 320H502V321H442ZM104 321H231V322H104ZM314 321H382V322H314ZM442 321H503V322H442ZM106 322H232V323H106ZM314 322H382V323H314ZM442 322H503V323H442ZM108 323H233V324H108ZM314 323H381V324H314ZM442 323H503V324H442ZM109 324H235V325H109ZM314 324H380V325H314ZM443 324H503V325H443ZM111 325H236V326H111ZM314 325H379V326H314ZM443 325H503V326H443ZM113 326H238V327H113ZM314 326H378V327H314ZM443 326H503V327H443ZM115 327H240V328H115ZM314 327H377V328H314ZM443 327H503V328H443ZM117 328H241V329H117ZM314 328H375V329H314ZM443 328H503V329H443ZM119 329H243V330H119ZM314 329H374V330H314ZM443 329H503V330H443ZM121 330H245V331H121ZM314 330H373V331H314ZM443 330H503V331H443ZM123 331H246V332H123ZM314 331H373V332H314ZM443 331H503V332H443ZM125 332H248V333H125ZM314 332H372V333H314ZM443 332H503V333H443ZM128 333H250V334H128ZM313 333H372V334H313ZM443 333H503V334H443ZM130 334H252V335H130ZM313 334H372V335H313ZM443 334H503V335H443ZM132 335H254V336H132ZM313 335H372V336H313ZM443 335H503V336H443ZM134 336H255V337H134ZM313 336H372V337H313ZM443 336H503V337H443ZM136 337H255V338H136ZM313 337H372V338H313ZM443 337H503V338H443ZM138 338H255V339H138ZM313 338H372V339H313ZM443 338H503V339H443ZM141 339H254V340H141ZM313 339H372V340H313ZM443 339H503V340H443ZM143 340H252V341H143ZM313 340H372V341H313ZM443 340H503V341H443ZM145 341H251V342H145ZM313 341H372V342H313ZM443 341H503V342H443ZM148 342H249V343H148ZM312 342H372V343H312ZM443 342H503V343H443ZM150 343H248V344H150ZM312 343H371V344H312ZM443 343H503V344H443ZM152 344H246V345H152ZM312 344H371V345H312ZM443 344H503V345H443ZM155 345H245V346H155ZM312 345H371V346H312ZM443 345H503V346H443ZM157 346H243V347H157ZM312 346H371V347H312ZM443 346H503V347H443ZM159 347H242V348H159ZM312 347H371V348H312ZM443 347H503V348H443ZM162 348H241V349H162ZM311 348H371V349H311ZM443 348H503V349H443ZM164 349H239V350H164ZM311 349H371V350H311ZM443 349H503V350H443ZM167 350H238V351H167ZM311 350H371V351H311ZM443 350H503V351H443ZM169 351H236V352H169ZM311 351H370V352H311ZM443 351H503V352H443ZM172 352H234V353H172ZM310 352H370V353H310ZM443 352H503V353H443ZM174 353H233V354H174ZM310 353H370V354H310ZM443 353H503V354H443ZM177 354H231V355H177ZM310 354H370V355H310ZM443 354H503V355H443ZM178 355H230V356H178ZM310 355H370V356H310ZM442 355H503V356H442ZM178 356H228V357H178ZM309 356H369V357H309ZM442 356H503V357H442ZM178 357H227V358H178ZM309 357H369V358H309ZM442 357H502V358H442ZM46 358H54V359H46ZM178 358H225V359H178ZM309 358H369V359H309ZM442 358H502V359H442ZM40 359H61V360H40ZM178 359H224V360H178ZM308 359H369V360H308ZM442 359H502V360H442ZM37 360H64V361H37ZM178 360H222V361H178ZM308 360H369V361H308ZM442 360H502V361H442ZM34 361H66V362H34ZM178 361H221V362H178ZM308 361H368V362H308ZM442 361H502V362H442ZM32 362H69V363H32ZM178 362H219V363H178ZM307 362H368V363H307ZM441 362H502V363H441ZM30 363H70V364H30ZM178 363H218V364H178ZM307 363H368V364H307ZM441 363H502V364H441ZM28 364H72V365H28ZM178 364H216V365H178ZM307 364H368V365H307ZM441 364H502V365H441ZM27 365H74V366H27ZM178 365H215V366H178ZM306 365H367V366H306ZM441 365H502V366H441ZM25 366H75V367H25ZM178 366H213V367H178ZM306 366H367V367H306ZM441 366H501V367H441ZM24 367H76V368H24ZM178 367H212V368H178ZM305 367H367V368H305ZM440 367H501V368H440ZM23 368H77V369H23ZM178 368H210V369H178ZM305 368H367V369H305ZM440 368H501V369H440ZM22 369H78V370H22ZM178 369H209V370H178ZM304 369H366V370H304ZM440 369H501V370H440ZM21 370H79V371H21ZM178 370H207V371H178ZM304 370H366V371H304ZM440 370H501V371H440ZM20 371H80V372H20ZM178 371H206V372H178ZM303 371H366V372H303ZM439 371H501V372H439ZM19 372H81V373H19ZM178 372H204V373H178ZM303 372H365V373H303ZM439 372H500V373H439ZM18 373H82V374H18ZM178 373H202V374H178ZM302 373H365V374H302ZM439 373H500V374H439ZM17 374H83V375H17ZM178 374H201V375H178ZM302 374H365V375H302ZM439 374H500V375H439ZM17 375H84V376H17ZM178 375H199V376H178ZM301 375H365V376H301ZM438 375H500V376H438ZM16 376H84V377H16ZM178 376H198V377H178ZM301 376H364V377H301ZM438 376H499V377H438ZM15 377H85V378H15ZM178 377H196V378H178ZM300 377H364V378H300ZM438 377H499V378H438ZM15 378H85V379H15ZM178 378H195V379H178ZM300 378H364V379H300ZM437 378H499V379H437ZM14 379H86V380H14ZM178 379H193V380H178ZM299 379H363V380H299ZM437 379H499V380H437ZM13 380H86V381H13ZM178 380H192V381H178ZM299 380H363V381H299ZM437 380H498V381H437ZM13 381H87V382H13ZM178 381H190V382H178ZM298 381H363V382H298ZM436 381H498V382H436ZM12 382H87V383H12ZM178 382H189V383H178ZM297 382H362V383H297ZM436 382H498V383H436ZM12 383H88V384H12ZM178 383H187V384H178ZM297 383H362V384H297ZM436 383H498V384H436ZM11 384H88V385H11ZM178 384H186V385H178ZM296 384H361V385H296ZM435 384H497V385H435ZM11 385H88V386H11ZM178 385H184V386H178ZM295 385H361V386H295ZM435 385H497V386H435ZM11 386H89V387H11ZM178 386H183V387H178ZM295 386H361V387H295ZM434 386H497V387H434ZM10 387H89V388H10ZM179 387H181V388H179ZM294 387H360V388H294ZM434 387H497V388H434ZM10 388H89V389H10ZM293 388H360V389H293ZM434 388H496V389H434ZM10 389H89V390H10ZM292 389H359V390H292ZM433 389H496V390H433ZM10 390H90V391H10ZM291 390H359V391H291ZM433 390H496V391H433ZM9 391H90V392H9ZM291 391H359V392H291ZM432 391H495V392H432ZM9 392H90V393H9ZM290 392H358V393H290ZM432 392H495V393H432ZM9 393H90V394H9ZM289 393H358V394H289ZM431 393H495V394H431ZM9 394H90V395H9ZM288 394H357V395H288ZM431 394H494V395H431ZM9 395H90V396H9ZM287 395H357V396H287ZM430 395H494V396H430ZM9 396H90V397H9ZM286 396H356V397H286ZM430 396H494V397H430ZM9 397H90V398H9ZM285 397H356V398H285ZM429 397H493V398H429ZM9 398H90V399H9ZM284 398H355V399H284ZM429 398H493V399H429ZM9 399H89V400H9ZM283 399H355V400H283ZM428 399H493V400H428ZM9 400H89V401H9ZM282 400H354V401H282ZM428 400H492V401H428ZM9 401H89V402H9ZM281 401H354V402H281ZM427 401H492V402H427ZM9 402H89V403H9ZM280 402H353V403H280ZM427 402H491V403H427ZM9 403H88V404H9ZM279 403H353V404H279ZM426 403H491V404H426ZM9 404H89V405H9ZM278 404H352V405H278ZM425 404H491V405H425ZM9 405H90V406H9ZM277 405H352V406H277ZM425 405H490V406H425ZM10 406H92V407H10ZM275 406H351V407H275ZM424 406H490V407H424ZM10 407H93V408H10ZM274 407H350V408H274ZM424 407H489V408H424ZM10 408H94V409H10ZM273 408H350V409H273ZM423 408H489V409H423ZM10 409H96V410H10ZM271 409H349V410H271ZM422 409H488V410H422ZM11 410H98V411H11ZM270 410H349V411H270ZM422 410H488V411H422ZM11 411H99V412H11ZM268 411H348V412H268ZM421 411H487V412H421ZM11 412H101V413H11ZM267 412H347V413H267ZM420 412H487V413H420ZM12 413H103V414H12ZM265 413H347V414H265ZM420 413H487V414H420ZM12 414H105V415H12ZM263 414H346V415H263ZM419 414H486V415H419ZM13 415H107V416H13ZM262 415H345V416H262ZM418 415H485V416H418ZM13 416H109V417H13ZM260 416H345V417H260ZM417 416H485V417H417ZM14 417H111V418H14ZM258 417H344V418H258ZM417 417H484V418H417ZM14 418H113V419H14ZM256 418H343V419H256ZM416 418H484V419H416ZM15 419H116V420H15ZM253 419H343V420H253ZM415 419H483V420H415ZM15 420H118V421H15ZM251 420H342V421H251ZM414 420H483V421H414ZM16 421H122V422H16ZM248 421H341V422H248ZM413 421H482V422H413ZM17 422H125V423H17ZM245 422H340V423H245ZM412 422H482V423H412ZM18 423H128V424H18ZM242 423H340V424H242ZM411 423H481V424H411ZM18 424H133V425H18ZM238 424H339V425H238ZM410 424H481V425H410ZM19 425H138V426H19ZM233 425H338V426H233ZM410 425H480V426H410ZM20 426H146V427H20ZM226 426H337V427H226ZM409 426H480V427H409ZM21 427H336V428H21ZM408 427H479V428H408ZM22 428H335V429H22ZM407 428H478V429H407ZM23 429H335V430H23ZM406 429H478V430H406ZM24 430H334V431H24ZM405 430H477V431H405ZM25 431H333V432H25ZM404 431H477V432H404ZM26 432H332V433H26ZM403 432H476V433H403ZM27 433H331V434H27ZM402 433H475V434H402ZM28 434H330V435H28ZM401 434H475V435H401ZM29 435H329V436H29ZM400 435H474V436H400ZM30 436H328V437H30ZM399 436H473V437H399ZM31 437H327V438H31ZM397 437H473V438H397ZM32 438H326V439H32ZM396 438H472V439H396ZM33 439H325V440H33ZM395 439H471V440H395ZM34 440H324V441H34ZM394 440H471V441H394ZM36 441H323V442H36ZM393 441H470V442H393ZM37 442H322V443H37ZM392 442H469V443H392ZM38 443H321V444H38ZM390 443H468V444H390ZM39 444H320V445H39ZM389 444H468V445H389ZM40 445H319V446H40ZM388 445H467V446H388ZM42 446H318V447H42ZM387 446H466V447H387ZM43 447H317V448H43ZM385 447H465V448H385ZM44 448H316V449H44ZM384 448H465V449H384ZM46 449H314V450H46ZM383 449H464V450H383ZM47 450H313V451H47ZM381 450H463V451H381ZM49 451H312V452H49ZM380 451H462V452H380ZM50 452H311V453H50ZM379 452H461V453H379ZM51 453H309V454H51ZM377 453H461V454H377ZM53 454H308V455H53ZM376 454H460V455H376ZM54 455H307V456H54ZM374 455H459V456H374ZM56 456H305V457H56ZM373 456H458V457H373ZM58 457H304V458H58ZM372 457H457V458H372ZM59 458H303V459H59ZM370 458H456V459H370ZM61 459H301V460H61ZM369 459H455V460H369ZM63 460H300V461H63ZM367 460H454V461H367ZM64 461H298V462H64ZM366 461H453V462H366ZM66 462H297V463H66ZM364 462H452V463H364ZM68 463H295V464H68ZM363 463H451V464H363ZM70 464H293V465H70ZM362 464H450V465H362ZM71 465H292V466H71ZM362 465H449V466H362ZM74 466H290V467H74ZM361 466H448V467H361ZM75 467H288V468H75ZM362 467H447V468H362ZM77 468H286V469H77ZM362 468H446V469H362ZM80 469H284V470H80ZM363 469H445V470H363ZM81 470H282V471H81ZM364 470H444V471H364ZM84 471H280V472H84ZM365 471H443V472H365ZM86 472H278V473H86ZM366 472H442V473H366ZM89 473H275V474H89ZM367 473H441V474H367ZM91 474H273V475H91ZM368 474H440V475H368ZM94 475H270V476H94ZM370 475H439V476H370ZM96 476H268V477H96ZM371 476H437V477H371ZM99 477H265V478H99ZM372 477H436V478H372ZM102 478H262V479H102ZM373 478H435V479H373ZM106 479H259V480H106ZM374 479H434V480H374ZM109 480H255V481H109ZM376 480H432V481H376ZM113 481H251V482H113ZM377 481H431V482H377ZM118 482H247V483H118ZM378 482H430V483H378ZM123 483H242V484H123ZM379 483H428V484H379ZM130 484H236V485H130ZM380 484H427V485H380ZM138 485H227V486H138ZM382 485H426V486H382ZM383 486H424V487H383ZM384 487H423V488H384ZM385 488H421V489H385ZM386 489H420V490H386ZM388 490H418V491H388ZM389 491H417V492H389ZM390 492H415V493H390ZM391 493H413V494H391ZM393 494H412V495H393ZM394 495H410V496H394ZM396 496H408V497H396ZM400 497H403V498H400Z"/>
</svg>
